<?xml version="1.0" encoding="UTF-8"?>
<svg version="1.1" xmlns="http://www.w3.org/2000/svg" width="240" height="240">
<path d="M0 0 C20.48760565 17.72503906 33.42068285 39.17104288 39.74902344 65.51318359 C40.11833984 67.03685547 40.11833984 67.03685547 40.49511719 68.59130859 C46.61866109 100.18034888 38.824292 132.59700642 21.14868164 159.04174805 C20.74866943 159.63044678 20.34865723 160.21914551 19.93652344 160.82568359 C19.55133545 161.39569092 19.16614746 161.96569824 18.76928711 162.55297852 C17.81675167 163.91268857 16.78895663 165.21909157 15.74902344 166.51318359 C15.08902344 166.51318359 14.42902344 166.51318359 13.74902344 166.51318359 C13.50925781 167.07650391 13.26949219 167.63982422 13.02246094 168.22021484 C3.16451521 185.97056498 -23.47224664 199.12829961 -42.25097656 204.70068359 C-52.97410581 207.72945207 -63.25480233 208.86304989 -74.35595703 208.82885742 C-76.48425138 208.82570834 -78.61113509 208.84920617 -80.73925781 208.87451172 C-93.20243504 208.93305981 -105.12202389 207.10018759 -116.87597656 202.76318359 C-117.58052979 202.50786865 -118.28508301 202.25255371 -119.01098633 201.98950195 C-149.53382946 190.55595363 -172.52574995 166.96975799 -186.04516602 137.74560547 C-198.02443301 110.32326593 -198.9565808 78.03967187 -188.67675781 49.93896484 C-187.095395 46.00737133 -185.22507274 42.25965779 -183.25097656 38.51318359 C-182.91582031 37.8502832 -182.58066406 37.18738281 -182.23535156 36.50439453 C-177.08574904 26.3637127 -170.97412962 17.84251436 -163.25097656 9.51318359 C-162.48785156 8.68044922 -161.72472656 7.84771484 -160.93847656 6.98974609 C-155.57084026 1.37289811 -149.70814334 -3.18479097 -143.25097656 -7.48681641 C-142.70731445 -7.85307129 -142.16365234 -8.21932617 -141.60351562 -8.59667969 C-98.42735099 -37.31949449 -39.58494885 -33.08712895 0 0 Z " fill="#F0F0F0" transform="translate(196.2509765625,27.48681640625)"/>
<path d="M0 0 C1.22364258 0.00644531 2.44728516 0.01289063 3.70800781 0.01953125 C30.21869888 0.54877016 52.20856297 12.27780116 70.39453125 31.17578125 C73.06178913 34.21023333 74.93329519 36.73948797 76.4375 40.5 C75.515625 42.6953125 75.515625 42.6953125 74.4375 44.5 C74.03917969 43.87351563 73.64085937 43.24703125 73.23046875 42.6015625 C72.70066406 41.78429687 72.17085937 40.96703125 71.625 40.125 C71.10292969 39.31289062 70.58085937 38.50078125 70.04296875 37.6640625 C68.45312803 35.26649759 68.45312803 35.26649759 65.4375 33.5 C65.4375 71.12 65.4375 108.74 65.4375 147.5 C64.7775 147.83 64.1175 148.16 63.4375 148.5 C63.46050171 147.86487991 63.48350342 147.22975983 63.50720215 146.57539368 C63.73257746 139.90653972 63.84280246 133.24251506 63.88916016 126.57006836 C63.92109426 124.08775651 63.98144432 121.60562907 64.07177734 119.12475586 C65.13749905 104.0825663 65.13749905 104.0825663 59.00195312 91.06787109 C55.73002574 88.17247312 52.22474456 85.84637302 48.43737793 83.68185425 C45.38495307 81.8779835 42.70972777 79.7074719 39.9375 77.5 C38.8959375 76.7059375 37.854375 75.911875 36.78125 75.09375 C32.93862759 72.1378866 29.19006886 69.06882678 25.4375 66 C19.59082974 61.22065628 13.67317452 56.55964447 7.671875 51.9765625 C4.11539872 49.25987069 0.5854842 46.50993721 -2.9375 43.75 C-3.49646973 43.31413574 -4.05543945 42.87827148 -4.63134766 42.42919922 C-5.1732373 42.00396973 -5.71512695 41.57874023 -6.2734375 41.140625 C-6.78658005 40.74258667 -7.2997226 40.34454834 -7.82841492 39.93444824 C-9.5625 38.5 -9.5625 38.5 -11.06022644 36.95791626 C-15.14928824 32.88068273 -18.17691407 31.79818133 -23.91160583 31.66775513 C-25.2682711 31.68139603 -25.2682711 31.68139603 -26.65234375 31.6953125 C-27.59686905 31.68160614 -28.54139435 31.66789978 -29.51454163 31.65377808 C-32.51018437 31.61660056 -35.50416006 31.6201847 -38.5 31.625 C-40.53973931 31.60686467 -42.57945675 31.58605935 -44.61914062 31.5625 C-49.60122564 31.50577028 -54.57899358 31.50425033 -59.5625 31.5 C-59.5625 43.71 -59.5625 55.92 -59.5625 68.5 C-58.2425 69.16 -56.9225 69.82 -55.5625 70.5 C-53.4466888 72.09543602 -51.37413235 73.71260901 -49.3125 75.375 C-41.51977179 81.58420722 -33.55544947 87.55199994 -25.5625 93.5 C-26.16894761 89.95864542 -26.51514491 89.53929465 -29.5 87.0625 C-32.68767224 84.39526405 -33.37881304 83.34139918 -34.5625 79.5 C-34.72258629 77.64982241 -34.82594241 75.79394232 -34.875 73.9375 C-35.10487541 69.54790119 -35.10487541 69.54790119 -37.875 66.25 C-38.761875 65.6725 -39.64875 65.095 -40.5625 64.5 C-43.01379176 61.36143018 -44.66073885 58.65430651 -44.3125 54.5625 C-44.065 53.881875 -43.8175 53.20125 -43.5625 52.5 C-33.28119328 51.96098004 -33.28119328 51.96098004 -28.5625 55.5 C-27.9025 55.5 -27.2425 55.5 -26.5625 55.5 C-23.89136013 55.80036914 -21.22850358 56.15599954 -18.5625 56.5 C-19.4375 60.375 -19.4375 60.375 -20.5625 61.5 C-19.469375 61.726875 -18.37625 61.95375 -17.25 62.1875 C-13.5625 63.5 -13.5625 63.5 -11.625 65.9375 C-10.5625 68.5 -10.5625 68.5 -10.5625 71.5 C-9.758125 71.335 -8.95375 71.17 -8.125 71 C0.31908173 69.81486572 0.31908173 69.81486572 4.4375 70.5 C7.1866087 72.65147637 8.88812269 74.63669279 10.75 77.5625 C12.55389599 79.63363985 13.65015171 80.11859665 16.125 81.1875 C21.44169353 83.69761182 25.3298811 87.52275671 28.4375 92.5 C28.58745332 96.99859969 27.28686663 100.43139342 25.4375 104.5 C26.984375 104.005 26.984375 104.005 28.5625 103.5 C31.94411027 102.54164891 34.90470504 102.17883682 38.4375 102.5 C39.4275 103.16 40.4175 103.82 41.4375 104.5 C41.70778374 108.21640139 41.618433 110.957201 40.4375 114.5 C41.015 114.726875 41.5925 114.95375 42.1875 115.1875 C45.10100652 116.88704547 46.60061664 118.67907198 48.4375 121.5 C48.546875 124.16796875 48.546875 124.16796875 48.4375 126.5 C37.98344145 127.39748674 31.12761617 125.90380191 22.90869141 119.26513672 C17.12980494 114.38467113 11.77634817 109.1446348 7.1328125 103.15625 C5.44566639 101.29896443 5.44566639 101.29896443 2.65625 100.37109375 C-2.07375517 97.62149123 -4.2822325 93.60707148 -7.1875 89.0625 C-8.30073527 87.35288869 -9.41780667 85.645768 -10.5390625 83.94140625 C-11.02455566 83.18545166 -11.51004883 82.42949707 -12.01025391 81.65063477 C-14.81300927 77.76742118 -17.30509639 75.22408596 -21.9375 73.875 C-22.71738281 73.63910156 -23.49726562 73.40320313 -24.30078125 73.16015625 C-25.42033203 72.83337891 -25.42033203 72.83337891 -26.5625 72.5 C-28.5625 71.83333333 -30.5625 71.16666667 -32.5625 70.5 C-32.33315591 72.41924787 -32.07815657 74.3354406 -31.8125 76.25 C-31.67328125 77.31734375 -31.5340625 78.3846875 -31.390625 79.484375 C-30.10936437 84.15009766 -27.48307617 85.88628256 -23.5625 88.5 C-23.49160156 89.73363281 -23.42070313 90.96726562 -23.34765625 92.23828125 C-23.10332997 94.85051191 -22.86602911 96.14147534 -21.15576172 98.16162109 C-19.1665619 99.78379435 -17.12374364 101.24585992 -15 102.6875 C-13.43958672 103.80997488 -11.88103669 104.93504384 -10.32421875 106.0625 C-9.52935059 106.6296875 -8.73448242 107.196875 -7.91552734 107.78125 C-4.26731479 110.44605768 -0.79317514 113.30938052 2.6875 116.1875 C7.40326985 120.05493638 12.14959072 123.86513644 17 127.5625 C22.45873508 131.72444603 27.82405627 135.99130084 33.17041016 140.29638672 C36.52659591 142.99283214 39.90816095 145.6333094 43.375 148.1875 C44.385625 148.950625 45.39625 149.71375 46.4375 150.5 C46.4375 150.83 46.4375 151.16 46.4375 151.5 C26.9675 151.5 7.4975 151.5 -12.5625 151.5 C-12.5625 151.17 -12.5625 150.84 -12.5625 150.5 C0.3075 150.5 13.1775 150.5 26.4375 150.5 C23.3840014 142.64010838 23.3840014 142.64010838 18.4375 136.5 C16.24606718 135.79266624 14.09637748 135.35915917 11.828125 134.96484375 C8.18150062 134.2557779 3.09524749 133.15774749 0.4375 130.5 C0.39657063 128.16702567 0.39508277 125.83294775 0.4375 123.5 C-2.60415115 122.77106399 -5.43066427 122.28382952 -8.5625 122.5 C-11.49605201 125.10354882 -11.49605201 125.10354882 -13.5625 128.5 C-14.87793863 129.85099103 -16.20425118 131.19205669 -17.5625 132.5 C-16.5725 129.53 -16.5725 129.53 -15.5625 126.5 C-16.4596875 126.0978125 -16.4596875 126.0978125 -17.375 125.6875 C-19.54976664 124.50691239 -20.83066512 123.23183488 -22.5625 121.5 C-24.0475 121.005 -24.0475 121.005 -25.5625 120.5 C-25.85125 121.098125 -26.14 121.69625 -26.4375 122.3125 C-27.5625 124.5 -27.5625 124.5 -29.5625 127.5 C-29.24743373 130.64221967 -29.24743373 130.64221967 -28.5625 133.5 C-29.2225 133.83 -29.8825 134.16 -30.5625 134.5 C-30.5625 133.84 -30.5625 133.18 -30.5625 132.5 C-31.50609375 133.16386719 -32.4496875 133.82773438 -33.421875 134.51171875 C-52.1922739 147.5 -52.1922739 147.5 -59.5625 147.5 C-59.5625 149.48 -59.5625 151.46 -59.5625 153.5 C-58.99402344 153.76039063 -58.42554687 154.02078125 -57.83984375 154.2890625 C-55.36592097 155.60452744 -53.31867502 157.13374669 -51.125 158.875 C-50.34382813 159.49246094 -49.56265625 160.10992187 -48.7578125 160.74609375 C-47.67113281 161.61427734 -47.67113281 161.61427734 -46.5625 162.5 C-45.0465625 163.7065625 -45.0465625 163.7065625 -43.5 164.9375 C-42.860625 165.453125 -42.22125 165.96875 -41.5625 166.5 C-41.8925 167.16 -42.2225 167.82 -42.5625 168.5 C-59.23109985 162.55336438 -72.06222915 146.09673983 -79.60058594 130.6237793 C-89.56336201 109.17568563 -92.82510036 84.23826374 -84.84619141 61.45458984 C-79.74983755 48.00509615 -72.50032924 36.90422556 -62.5625 26.5 C-62.03398438 25.89671875 -61.50546875 25.2934375 -60.9609375 24.671875 C-45.74384873 7.97209552 -22.06583329 -0.12255392 0 0 Z " fill="#292523" transform="translate(117.5625,27.5)"/>
<path d="M0 0 C5.95887059 -0.19884571 11.91578136 -0.3434329 17.87719727 -0.43945312 C19.90162828 -0.47950569 21.92583048 -0.5339671 23.94946289 -0.60351562 C42.9510205 -1.23986427 42.9510205 -1.23986427 48.4921875 3.73046875 C49.69232375 5.12771614 50.86567338 6.54881758 52 8 C53.6056866 9.4167973 53.6056866 9.4167973 55.23046875 10.58203125 C57.33937773 12.17276709 59.44517329 13.76699075 61.546875 15.3671875 C62.39862305 16.01445801 62.39862305 16.01445801 63.26757812 16.67480469 C66.17893788 18.90181437 69.0583038 21.16915213 71.9375 23.4375 C72.80894653 24.12356323 72.80894653 24.12356323 73.69799805 24.82348633 C74.87678239 25.7517566 76.05541175 26.68022372 77.23388672 27.60888672 C79.57156016 29.45020041 81.91150763 31.28860978 84.25170898 33.12670898 C85.41939299 34.0439304 86.58687277 34.96141187 87.75415039 35.87915039 C90.64280907 38.15010342 93.53370535 40.41807908 96.4296875 42.6796875 C105.38009778 49.68170915 114.17559959 56.83017466 123 64 C123.33 81.16 123.66 98.32 124 116 C124.33 78.38 124.66 40.76 125 2 C128.74392306 3.87196153 129.60045413 4.40068119 131.75 7.625 C132.17796875 8.25664063 132.6059375 8.88828125 133.046875 9.5390625 C133.36140625 10.02117187 133.6759375 10.50328125 134 11 C134.66 10.34 135.32 9.68 136 9 C141.61044538 16.34132746 145.01091228 24.34107998 148 33 C148.34417969 33.99386719 148.68835938 34.98773438 149.04296875 36.01171875 C155.341019 58.15838372 151.01719462 83.38917554 140.14257812 103.30957031 C127.65823188 124.78010173 107.45641943 140.55748404 83.56396484 147.30322266 C62.36453138 152.45943022 39.42451182 149.86690967 20 140 C17.671875 138.53515625 17.671875 138.53515625 16 137 C16 136.01 16 135.02 16 134 C13.71680472 131.98641963 13.71680472 131.98641963 10.8125 130.0625 C8.87122871 128.71374525 6.93369782 127.35959051 5 126 C4.05511719 125.37996094 3.11023437 124.75992188 2.13671875 124.12109375 C0 122 0 122 -0.3125 118.75 C-0.209375 117.8425 -0.10625 116.935 0 116 C1.02738281 115.5875 2.05476563 115.175 3.11328125 114.75 C11.16665606 111.42405067 18.04691428 108.00501711 24.86328125 102.50390625 C27 101 27 101 30 101 C29.731875 100.319375 29.46375 99.63875 29.1875 98.9375 C28.90775178 94.5547779 31.2841305 92.26092289 34 89 C38.48071284 89.84743917 40.63834347 92.02034989 44 95 C43.67 96.65 43.34 98.3 43 100 C43.40992188 99.44570312 43.81984375 98.89140625 44.2421875 98.3203125 C44.78101563 97.59585938 45.31984375 96.87140625 45.875 96.125 C46.40867188 95.40570313 46.94234375 94.68640625 47.4921875 93.9453125 C49 92 49 92 51 90 C53.1640625 90.2421875 53.1640625 90.2421875 55.625 90.875 C56.85089844 91.18050781 56.85089844 91.18050781 58.1015625 91.4921875 C58.72804687 91.65976563 59.35453125 91.82734375 60 92 C60.495 95.465 60.495 95.465 61 99 C65.25823238 100.70329295 69.0909235 102.05718695 73.625 102.75 C77.94123975 103.65946675 80.01124603 105.42649812 82.80859375 108.7578125 C84 111 84 111 86 119 C92.27 119 98.54 119 105 119 C103.164375 117.5975 101.32875 116.195 99.4375 114.75 C94.40874007 110.89390902 89.43829615 106.9711464 84.5 103 C79.8729579 99.27944423 75.21901298 95.60322664 70.5 92 C65.04841578 87.83074655 59.68001869 83.56688914 54.32885742 79.26977539 C46.26330924 72.63453004 46.26330924 72.63453004 37.78515625 66.5625 C35.22620794 64.3227203 35.70237933 62.1497788 35.47265625 58.921875 C35.11877996 56.60425531 35.11877996 56.60425531 32.0625 54.8125 C31.051875 54.214375 30.04125 53.61625 29 53 C26.29333623 48.69394401 26.80714299 43.91785365 27 39 C29.06484978 39.42627206 31.12681821 39.86651449 33.1875 40.3125 C34.33605469 40.55613281 35.48460937 40.79976562 36.66796875 41.05078125 C42.4005816 42.68387026 45.37176001 44.98919214 48.55859375 50 C49.50895508 51.4540625 49.50895508 51.4540625 50.47851562 52.9375 C51.78337217 54.97739538 53.08546273 57.01906275 54.38476562 59.0625 C57.83829521 64.33570659 60.05220451 67.52443107 66 70 C68.12150023 71.92335977 69.94885024 74.07954489 71.8125 76.25 C76.473059 81.47396302 81.12567989 86.11716341 87 90 C87.61875 90.41894531 88.2375 90.83789062 88.875 91.26953125 C94.82491956 94.77750466 101.22992373 94.79359524 108 95 C106.96868013 89.43380058 106.96868013 89.43380058 102.8125 85.6875 C100 83 100 83 99.83203125 80.46875 C100.09864041 77.93774036 100.46856972 75.48805994 101 73 C95.39436958 72.17377329 90.57710648 71.93204344 85 73 C85.144375 72.319375 85.28875 71.63875 85.4375 70.9375 C85.7159375 69.4834375 85.7159375 69.4834375 86 68 C86.350625 66.9275 86.70125 65.855 87.0625 64.75 C86.97633564 59.58013869 84.83534508 57.62992809 81.33203125 54.00390625 C78.63125157 51.68313577 76.01491519 50.29281793 72.765625 48.8984375 C70.04922365 47.51619787 68.60129349 45.53538136 67 43 C67 42.34 67 41.68 67 41 C63.38132441 39.7937748 60.07493749 39.89183082 56.3125 39.9375 C55.61060547 39.94201172 54.90871094 39.94652344 54.18554688 39.95117188 C52.45699462 39.96293073 50.72848635 39.98086546 49 40 C48.67 38.88625 48.34 37.7725 48 36.625 C46.97584204 34.15203321 46.48377436 33.22232628 44.01953125 32.08984375 C41.56193256 31.46843436 41.56193256 31.46843436 38 31 C38.99 29.02 39.98 27.04 41 25 C38.36 24.67 35.72 24.34 33 24 C32.67 24.66 32.34 25.32 32 26 C31.566875 25.525625 31.13375 25.05125 30.6875 24.5625 C27.6664065 21.7651912 24.72769873 21.88665326 20.8125 21.9375 C19.91144531 21.94652344 19.01039062 21.95554687 18.08203125 21.96484375 C17.05142578 21.98224609 17.05142578 21.98224609 16 22 C16.400158 27.46882606 18.42311318 30.98892461 22 35 C22.99 35.66 23.98 36.32 25 37 C25.40625 39.390625 25.40625 39.390625 25.5 42.25 C25.81302393 46.85506365 26.33880493 50.10325007 29 54 C30.3303125 55.051875 30.3303125 55.051875 31.6875 56.125 C32.450625 56.74375 33.21375 57.3625 34 58 C34 59.32 34 60.64 34 62 C30.28835842 60.35728782 27.31833704 58.05107313 24.125 55.5625 C23.56635254 55.12873047 23.00770508 54.69496094 22.43212891 54.24804688 C19.32583224 51.83194262 16.23334244 49.3982912 13.140625 46.96484375 C12.19678955 46.2222229 12.19678955 46.2222229 11.23388672 45.46459961 C10.01556444 44.50469478 8.79839809 43.5433206 7.58251953 42.58032227 C5.10283413 40.62152178 2.63118051 38.75412034 0 37 C-0.26667539 34.16272675 -0.34791234 31.54616955 -0.29296875 28.7109375 C-0.28872391 27.89251373 -0.28447906 27.07408997 -0.28010559 26.23086548 C-0.26328679 23.61191164 -0.22562974 20.99372198 -0.1875 18.375 C-0.17245726 16.6015736 -0.15876814 14.82813516 -0.14648438 13.0546875 C-0.11337292 8.7028297 -0.06156952 4.35154449 0 0 Z " fill="#332F2C" transform="translate(58,59)"/>
<path d="M0 0 C5.95887059 -0.19884571 11.91578136 -0.3434329 17.87719727 -0.43945312 C19.90162828 -0.47950569 21.92583048 -0.5339671 23.94946289 -0.60351562 C42.9510205 -1.23986427 42.9510205 -1.23986427 48.4921875 3.73046875 C49.69232375 5.12771614 50.86567338 6.54881758 52 8 C53.6056866 9.4167973 53.6056866 9.4167973 55.23046875 10.58203125 C57.33937773 12.17276709 59.44517329 13.76699075 61.546875 15.3671875 C62.39862305 16.01445801 62.39862305 16.01445801 63.26757812 16.67480469 C66.17893788 18.90181437 69.0583038 21.16915213 71.9375 23.4375 C72.80894653 24.12356323 72.80894653 24.12356323 73.69799805 24.82348633 C74.87678239 25.7517566 76.05541175 26.68022372 77.23388672 27.60888672 C79.57156016 29.45020041 81.91150763 31.28860978 84.25170898 33.12670898 C85.41939299 34.0439304 86.58687277 34.96141187 87.75415039 35.87915039 C91.18274639 38.57458149 94.61363118 41.26693609 98.05596924 43.94480896 C99.20447331 44.84780646 100.34541878 45.76057924 101.4753418 46.6867218 C104.58807621 49.22001218 107.68018644 51.4470553 111.16064453 53.45043945 C116.68961597 56.86395292 121.90618563 60.3355829 123.84075928 66.81665039 C125.00072659 74.80053567 124.45942867 82.79037705 124 90.8125 C123.91962618 93.25822986 123.84664267 95.70421437 123.78125 98.15039062 C123.60607282 104.10587388 123.33945264 110.05173712 123 116 C120.42763593 113.54864037 118.34912666 111.24283275 116.5625 108.171875 C116.14226562 107.45386719 115.72203125 106.73585938 115.2890625 105.99609375 C114.86367187 105.25488281 114.43828125 104.51367188 114 103.75 C113.57460937 103.02425781 113.14921875 102.29851562 112.7109375 101.55078125 C110.25577964 97.32580101 108.00659326 93.0703464 105.97387695 88.62548828 C104.97323492 86.69191445 104.97323492 86.69191445 102.1875 85.125 C100 83 100 83 99.90625 80.5390625 C100.16290665 77.99388402 100.51597341 75.51118748 101 73 C95.39436958 72.17377329 90.57710648 71.93204344 85 73 C85.144375 72.319375 85.28875 71.63875 85.4375 70.9375 C85.7159375 69.4834375 85.7159375 69.4834375 86 68 C86.350625 66.9275 86.70125 65.855 87.0625 64.75 C86.97633564 59.58013869 84.83534508 57.62992809 81.33203125 54.00390625 C78.63125157 51.68313577 76.01491519 50.29281793 72.765625 48.8984375 C70.04922365 47.51619787 68.60129349 45.53538136 67 43 C67 42.34 67 41.68 67 41 C63.38132441 39.7937748 60.07493749 39.89183082 56.3125 39.9375 C55.61060547 39.94201172 54.90871094 39.94652344 54.18554688 39.95117188 C52.45699462 39.96293073 50.72848635 39.98086546 49 40 C48.67 38.88625 48.34 37.7725 48 36.625 C46.97584204 34.15203321 46.48377436 33.22232628 44.01953125 32.08984375 C41.56193256 31.46843436 41.56193256 31.46843436 38 31 C38.99 29.02 39.98 27.04 41 25 C38.36 24.67 35.72 24.34 33 24 C32.67 24.66 32.34 25.32 32 26 C31.566875 25.525625 31.13375 25.05125 30.6875 24.5625 C27.6664065 21.7651912 24.72769873 21.88665326 20.8125 21.9375 C19.91144531 21.94652344 19.01039062 21.95554687 18.08203125 21.96484375 C17.05142578 21.98224609 17.05142578 21.98224609 16 22 C16.400158 27.46882606 18.42311318 30.98892461 22 35 C22.99 35.66 23.98 36.32 25 37 C25.40625 39.390625 25.40625 39.390625 25.5 42.25 C25.81302393 46.85506365 26.33880493 50.10325007 29 54 C30.3303125 55.051875 30.3303125 55.051875 31.6875 56.125 C32.450625 56.74375 33.21375 57.3625 34 58 C34 59.32 34 60.64 34 62 C30.28835842 60.35728782 27.31833704 58.05107313 24.125 55.5625 C23.56635254 55.12873047 23.00770508 54.69496094 22.43212891 54.24804688 C19.32583224 51.83194262 16.23334244 49.3982912 13.140625 46.96484375 C12.19678955 46.2222229 12.19678955 46.2222229 11.23388672 45.46459961 C10.01556444 44.50469478 8.79839809 43.5433206 7.58251953 42.58032227 C5.10283413 40.62152178 2.63118051 38.75412034 0 37 C-0.26667539 34.16272675 -0.34791234 31.54616955 -0.29296875 28.7109375 C-0.28872391 27.89251373 -0.28447906 27.07408997 -0.28010559 26.23086548 C-0.26328679 23.61191164 -0.22562974 20.99372198 -0.1875 18.375 C-0.17245726 16.6015736 -0.15876814 14.82813516 -0.14648438 13.0546875 C-0.11337292 8.7028297 -0.06156952 4.35154449 0 0 Z " fill="#F8F8F8" transform="translate(58,59)"/>
<path d="M0 0 C20.48760565 17.72503906 33.42068285 39.17104288 39.74902344 65.51318359 C40.11833984 67.03685547 40.11833984 67.03685547 40.49511719 68.59130859 C46.61866109 100.18034888 38.824292 132.59700642 21.14868164 159.04174805 C20.74866943 159.63044678 20.34865723 160.21914551 19.93652344 160.82568359 C19.55133545 161.39569092 19.16614746 161.96569824 18.76928711 162.55297852 C17.81675167 163.91268857 16.78895663 165.21909157 15.74902344 166.51318359 C15.08902344 166.51318359 14.42902344 166.51318359 13.74902344 166.51318359 C13.50925781 167.07650391 13.26949219 167.63982422 13.02246094 168.22021484 C3.16451521 185.97056498 -23.47224664 199.12829961 -42.25097656 204.70068359 C-52.97410581 207.72945207 -63.25480233 208.86304989 -74.35595703 208.82885742 C-76.48425138 208.82570834 -78.61113509 208.84920617 -80.73925781 208.87451172 C-93.20243504 208.93305981 -105.12202389 207.10018759 -116.87597656 202.76318359 C-117.58052979 202.50786865 -118.28508301 202.25255371 -119.01098633 201.98950195 C-149.53382946 190.55595363 -172.52574995 166.96975799 -186.04516602 137.74560547 C-198.02443301 110.32326593 -198.9565808 78.03967187 -188.67675781 49.93896484 C-187.095395 46.00737133 -185.22507274 42.25965779 -183.25097656 38.51318359 C-182.91582031 37.8502832 -182.58066406 37.18738281 -182.23535156 36.50439453 C-177.08574904 26.3637127 -170.97412962 17.84251436 -163.25097656 9.51318359 C-162.48785156 8.68044922 -161.72472656 7.84771484 -160.93847656 6.98974609 C-155.57084026 1.37289811 -149.70814334 -3.18479097 -143.25097656 -7.48681641 C-142.70731445 -7.85307129 -142.16365234 -8.21932617 -141.60351562 -8.59667969 C-98.42735099 -37.31949449 -39.58494885 -33.08712895 0 0 Z M-158.25097656 10.51318359 C-158.86585938 11.06361328 -159.48074219 11.61404297 -160.11425781 12.18115234 C-180.94605687 31.5762756 -190.42160717 61.39984873 -191.70605469 89.05639648 C-192.04303427 105.14167751 -188.71081427 123.22535235 -181.25097656 137.51318359 C-180.67605469 138.69525391 -180.10113281 139.87732422 -179.50878906 141.09521484 C-175.0453029 150.06684492 -169.65219341 157.82569397 -163.25097656 165.51318359 C-162.54328125 166.38587891 -161.83558594 167.25857422 -161.10644531 168.15771484 C-148.07614852 183.50880661 -130.22467715 194.19336847 -111.25097656 200.51318359 C-110.0121875 200.92826172 -108.77339844 201.34333984 -107.49707031 201.77099609 C-77.50738251 210.54170464 -45.60565396 204.25786126 -18.71044922 189.89892578 C-13.4563007 186.93857766 -8.80166315 183.47714644 -4.25097656 179.51318359 C-3.41050781 178.81966797 -2.57003906 178.12615234 -1.70410156 177.41162109 C9.82968667 167.56133611 18.66754302 155.86585966 25.74902344 142.51318359 C26.07386719 141.90700195 26.39871094 141.30082031 26.73339844 140.67626953 C40.14515729 114.96581787 41.44804812 83.82155645 33.09960938 56.37841797 C24.38492085 29.10537529 5.09639401 4.77176128 -20.30566406 -8.67041016 C-23.68309994 -10.40834464 -27.09581282 -12.06121577 -30.53417969 -13.67480469 C-31.9354046 -14.33755697 -33.322119 -15.03091583 -34.70410156 -15.73291016 C-44.49715521 -20.53599181 -56.38315741 -23.12951824 -67.25097656 -23.48681641 C-67.8984082 -23.51259766 -68.54583984 -23.53837891 -69.21289062 -23.56494141 C-104.01272859 -24.79952546 -132.93235025 -13.32380194 -158.25097656 10.51318359 Z " fill="#25211E" transform="translate(196.2509765625,27.48681640625)"/>
<path d="M0 0 C0.66 0 1.32 0 2 0 C2 0.66 2 1.32 2 2 C3.06734375 2.35578125 3.06734375 2.35578125 4.15625 2.71875 C7.48148321 4.216932 9.74659857 6.10968447 12.5 8.5 C17.20462293 12.52543184 22.01170314 16.36277084 26.94042969 20.11401367 C31.09491338 23.28495946 35.18086218 26.53295216 39.25 29.8125 C44.58282405 34.10681219 49.98281371 38.2992478 55.4375 42.4375 C61.81197319 47.27635738 68.05520098 52.25152042 74.24609375 57.32250977 C80.39644746 62.35106714 86.67924533 67.18779878 93 72 C94.773284 73.35095592 96.54440628 74.70475825 98.3125 76.0625 C99.03050781 76.61035156 99.74851562 77.15820312 100.48828125 77.72265625 C101.23658203 78.35494141 101.23658203 78.35494141 102 79 C102 79.33 102 79.66 102 80 C97.05 80 92.1 80 87 80 C86.505 78.30875 86.01 76.6175 85.5 74.875 C83.66280005 69.91838765 81.85317475 66.98704338 77.4296875 64.07421875 C73.58526716 62.37451522 69.69649545 61.86393116 65.5390625 61.421875 C63 61 63 61 61 59 C60.875 55.375 60.875 55.375 61 52 C60.278125 51.855625 59.55625 51.71125 58.8125 51.5625 C56 51 56 51 53.5 50.125 C50.69574292 49.69579534 50.69574292 49.69579534 48.1875 52.4375 C47.465625 53.283125 46.74375 54.12875 46 55 C41.58110387 53.64978174 39.65654657 51.73884332 37 48 C31.77874675 49.74041775 29.09481217 54.81037567 26.75 59.5 C21.51026897 66.98533004 12.32028437 71.71282542 4 75 C2.68 75 1.36 75 0 75 C0 50.25 0 25.5 0 0 Z " fill="#020D7B" transform="translate(58,98)"/>
<path d="M0 0 C25.74 0 51.48 0 78 0 C78 20.13 78 40.26 78 61 C77.01 61 76.02 61 75 61 C75 60.34 75 59.68 75 59 C74.46890625 58.76925781 73.9378125 58.53851563 73.390625 58.30078125 C70.245397 56.58940719 67.53689663 54.4156833 64.75 52.1875 C64.1422876 51.70611572 63.5345752 51.22473145 62.90844727 50.72875977 C57.53499714 46.45937771 52.21991672 42.11838341 46.90454102 37.77709961 C42.71620327 34.3656023 38.48333984 31.02492489 34.1875 27.75 C29.22383905 23.96436489 24.37499283 20.06430831 19.55859375 16.09375 C13.65695803 11.26431986 7.59498483 6.65599284 1.43359375 2.1640625 C0.96050781 1.77992187 0.48742187 1.39578125 0 1 C0 0.67 0 0.34 0 0 Z " fill="#051077" transform="translate(103,59)"/>
<path d="M0 0 C3.15659463 2.51184338 6.19568733 5.09654497 9 8 C9 8.33 9 8.66 9 9 C-30.93 9 -70.86 9 -112 9 C-100.82950062 -2.17049938 -87.55681681 -10.45663767 -72 -14 C-71.36755371 -14.16483887 -70.73510742 -14.32967773 -70.08349609 -14.49951172 C-45.90524548 -20.48137421 -20.31584164 -13.62749871 0 0 Z " fill="#FDFDFD" transform="translate(170,47)"/>
<path d="M0 0 C39.6 0 79.2 0 120 0 C110.95084664 11.3114417 97.23611501 17.56582512 83.625 21.875 C82.98353027 22.07818848 82.34206055 22.28137695 81.68115234 22.49072266 C63.10862275 28.0265347 40.86689218 26.10366662 23.578125 17.40625 C22.30195312 16.71015625 22.30195312 16.71015625 21 16 C20.00484375 15.4740625 19.0096875 14.948125 17.984375 14.40625 C11.27823181 10.69933668 5.34023164 6.52902771 0 1 C0 0.67 0 0.34 0 0 Z " fill="#FAFAFA" transform="translate(59,180)"/>
<path d="M0 0 C0.66 0 1.32 0 2 0 C2 38.28 2 76.56 2 116 C-10.53461474 103.46538526 -16.32720395 89.02670581 -20 72 C-20.19464844 71.21496094 -20.38929687 70.42992187 -20.58984375 69.62109375 C-24.08502234 47.28523818 -17.80738141 25.28343467 -5 7 C-4.51015625 6.26394531 -4.0203125 5.52789062 -3.515625 4.76953125 C-2.40654167 3.13526434 -1.21257455 1.55902442 0 0 Z " fill="#F5F5F5" transform="translate(53,60)"/>
<path d="M0 0 C15.69688342 15.69688342 21.46615823 35.29310112 21.625 57.0625 C21.52747505 68.50260039 20.50334779 78.46944431 16 89 C15.73767578 89.61713867 15.47535156 90.23427734 15.20507812 90.87011719 C11.55912361 99.2505666 6.87372046 106.98018774 1 114 C0.67 114 0.34 114 0 114 C0 76.38 0 38.76 0 0 Z " fill="#FAFAFA" transform="translate(184,61)"/>
<path d="M0 0 C2.06484978 0.42627206 4.12681821 0.86651449 6.1875 1.3125 C7.91033203 1.67794922 7.91033203 1.67794922 9.66796875 2.05078125 C15.4005816 3.68387026 18.37176001 5.98919214 21.55859375 11 C22.19216797 11.969375 22.82574219 12.93875 23.47851562 13.9375 C24.78337217 15.97739538 26.08546273 18.01906275 27.38476562 20.0625 C30.83829521 25.33570659 33.05220451 28.52443107 39 31 C41.12150023 32.92335977 42.94885024 35.07954489 44.8125 37.25 C49.473059 42.47396302 54.12567989 47.11716341 60 51 C60.928125 51.62841797 60.928125 51.62841797 61.875 52.26953125 C65.11956205 54.18247096 67.10235911 55.09562087 70.93359375 54.6875 C75.05457453 54.29172754 77.16435675 54.30628337 81 56 C85.79105757 61.56604452 94 72.41686732 94 80 C85.28891757 81.00641517 78.6683732 81.39404816 71.4375 75.75 C69.82158134 74.36234397 68.2384046 72.94852589 66.67138672 71.50585938 C63.73285068 68.858344 60.60334341 66.44977905 57.5 64 C56.22865162 62.97980818 54.95781401 61.95897951 53.6875 60.9375 C50.32483 58.247364 46.92255386 55.61330861 43.5 53 C38.04841578 48.83074655 32.68001869 44.56688914 27.32885742 40.26977539 C19.26330924 33.63453004 19.26330924 33.63453004 10.78515625 27.5625 C8.22620794 25.3227203 8.70237933 23.1497788 8.47265625 19.921875 C8.11877996 17.60425531 8.11877996 17.60425531 5.0625 15.8125 C4.051875 15.214375 3.04125 14.61625 2 14 C-0.70666377 9.69394401 -0.19285701 4.91785365 0 0 Z " fill="#B6AFD0" transform="translate(85,98)"/>
<path d="M0 0 C4.5940142 -0.69054076 8.43907306 -1.11235491 12.3515625 1.67578125 C13.83856852 3.1128701 15.3085203 4.56779586 16.76171875 6.0390625 C19.68637417 8.60132606 22.42533861 9.29788769 26.11328125 10.2890625 C28 11 28 11 30.0625 13.5625 C31 16 31 16 31 18 C32.07378906 17.9071875 33.14757812 17.814375 34.25390625 17.71875 C45.58776353 17.03100303 45.58776353 17.03100303 49.33984375 19.60546875 C51 21.6875 51 21.6875 52.5 23.9140625 C54.14541371 26.20221594 55.56344633 27.18732388 58 28.5625 C62.29180935 31.07375439 66.19851016 33.8157235 69 38 C69.0625 41.5 69.0625 41.5 68 45 C67.64556734 46.31242819 67.29139313 47.62492622 66.9375 48.9375 C66.628125 49.948125 66.31875 50.95875 66 52 C67.19625 51.690625 68.3925 51.38125 69.625 51.0625 C76.73010888 49.3114182 76.73010888 49.3114182 80 49 C80.66 49.66 81.32 50.32 82 51 C81.94921875 52.91796875 81.94921875 52.91796875 81.6875 55.1875 C81.58965053 58.23061843 81.6597129 59.54920729 83.515625 62.0078125 C84.7626019 63.17875422 86.04718421 64.31133254 87.37109375 65.39453125 C89.23499687 67.23161562 89.60721288 68.44964981 90 71 C80.77866165 71.50298209 73.91117427 69.38827201 66.73046875 63.50390625 C62.21765237 59.36554387 57.92568876 55.00184937 53.67163086 50.59887695 C53.01171143 49.92171631 52.35179199 49.24455566 51.671875 48.546875 C51.0850293 47.93682617 50.49818359 47.32677734 49.89355469 46.69824219 C48.00821043 44.88750931 48.00821043 44.88750931 45.48144531 43.5612793 C42.70038972 41.81149077 41.43230226 40.19710931 39.625 37.47265625 C39.03203125 36.59802734 38.4390625 35.72339844 37.828125 34.82226562 C37.22484375 33.91154297 36.6215625 33.00082031 36 32.0625 C30.18887836 22.54979482 30.18887836 22.54979482 20.9140625 17.12890625 C19.82867187 16.94199219 18.74328125 16.75507812 17.625 16.5625 C11.20811226 15.20661525 6.65187877 13.60464959 2.6953125 8.2265625 C0.94072736 5.35872334 0 3.39311756 0 0 Z " fill="#F34D03" transform="translate(75,82)"/>
<path d="M0 0 C4.03277633 1.31981771 5.32216679 2.48662688 7.4375 6.125 C7.4375 7.445 7.4375 8.765 7.4375 10.125 C8.0975 10.125 8.7575 10.125 9.4375 10.125 C9.4375 9.465 9.4375 8.805 9.4375 8.125 C12.50072033 8.72155713 14.42082476 9.65243751 16.875 11.5625 C19.64122386 13.6150499 22.15640513 15.00252018 25.4375 16.125 C30.21527778 17.90277778 30.21527778 17.90277778 32.4375 20.125 C34.50624034 20.7675235 34.50624034 20.7675235 36.4375 21.125 C36.1075 23.105 35.7775 25.085 35.4375 27.125 C35.953125 26.63 36.46875 26.135 37 25.625 C40.33778661 23.57097747 42.58149755 23.71185688 46.4375 24.125 C49.6225357 25.88515131 50.27046972 26.62390916 51.4375 30.125 C51.7675 28.805 52.0975 27.485 52.4375 26.125 C54.0875 26.125 55.7375 26.125 57.4375 26.125 C57.1075 31.075 56.7775 36.025 56.4375 41.125 C54.4575 41.125 52.4775 41.125 50.4375 41.125 C49.9425 39.145 49.9425 39.145 49.4375 37.125 C47.7875 38.115 46.1375 39.105 44.4375 40.125 C45.0975 40.785 45.7575 41.445 46.4375 42.125 C25.06546738 40.44876215 5.01332631 28.25191224 -10.5625 14.125 C-9.9025 13.795 -9.2425 13.465 -8.5625 13.125 C-8.665625 11.908125 -8.76875 10.69125 -8.875 9.4375 C-8.86251411 5.92896378 -8.57683029 5.14627831 -6.5 2.0625 C-3.5625 0.125 -3.5625 0.125 0 0 Z " fill="#E9E9E9" transform="translate(51.5625,187.875)"/>
<path d="M0 0 C10.28130672 -0.53901996 10.28130672 -0.53901996 15 3 C15.66 3 16.32 3 17 3 C19.67113987 3.30036914 22.33399642 3.65599954 25 4 C24.125 7.875 24.125 7.875 23 9 C24.093125 9.226875 25.18625 9.45375 26.3125 9.6875 C30 11 30 11 31.9375 13.4375 C33 16 33 16 33 19 C34.2065625 18.7525 34.2065625 18.7525 35.4375 18.5 C43.88158173 17.31486572 43.88158173 17.31486572 48 18 C50.7491087 20.15147637 52.45062269 22.13669279 54.3125 25.0625 C56.11639599 27.13363985 57.21265171 27.61859665 59.6875 28.6875 C65.00419353 31.19761182 68.8923811 35.02275671 72 40 C72.14995332 44.49859969 70.84936663 47.93139342 69 52 C70.546875 51.505 70.546875 51.505 72.125 51 C75.50661027 50.04164891 78.46720504 49.67883682 82 50 C83.485 50.99 83.485 50.99 85 52 C85.27028374 55.71640139 85.180933 58.457201 84 62 C84.5775 62.226875 85.155 62.45375 85.75 62.6875 C88.66350652 64.38704547 90.16311664 66.17907198 92 69 C92.109375 71.66796875 92.109375 71.66796875 92 74 C81.54594145 74.89748674 74.69011617 73.40380191 66.47119141 66.76513672 C60.69230494 61.88467113 55.33884817 56.6446348 50.6953125 50.65625 C49.00816639 48.79896443 49.00816639 48.79896443 46.21875 47.87109375 C41.48874483 45.12149123 39.2802675 41.10707148 36.375 36.5625 C35.26176473 34.85288869 34.14469333 33.145768 33.0234375 31.44140625 C32.53794434 30.68545166 32.05245117 29.92949707 31.55224609 29.15063477 C28.74949073 25.26742118 26.25740361 22.72408596 21.625 21.375 C20.84511719 21.13910156 20.06523438 20.90320313 19.26171875 20.66015625 C18.51535156 20.44230469 17.76898438 20.22445312 17 20 C15 19.33333333 13 18.66666667 11 18 C11.22934409 19.91924787 11.48434343 21.8354406 11.75 23.75 C11.88921875 24.81734375 12.0284375 25.8846875 12.171875 26.984375 C13.45313563 31.65009766 16.07942383 33.38628256 20 36 C20.10634766 37.85044922 20.10634766 37.85044922 20.21484375 39.73828125 C20.45917003 42.35051191 20.69647089 43.64147534 22.40673828 45.66162109 C24.3959381 47.28379435 26.43875636 48.74585992 28.5625 50.1875 C30.12291328 51.30997488 31.68146331 52.43504384 33.23828125 53.5625 C34.03314941 54.1296875 34.82801758 54.696875 35.64697266 55.28125 C39.29518521 57.94605768 42.76932486 60.80938052 46.25 63.6875 C50.96576985 67.55493638 55.71209072 71.36513644 60.5625 75.0625 C66.02123508 79.22444603 71.38655627 83.49130084 76.73291016 87.79638672 C80.08909591 90.49283214 83.47066095 93.1333094 86.9375 95.6875 C87.948125 96.450625 88.95875 97.21375 90 98 C90 98.33 90 98.66 90 99 C70.53 99 51.06 99 31 99 C31 98.67 31 98.34 31 98 C43.87 98 56.74 98 70 98 C66.48524202 90.07284397 66.48524202 90.07284397 62 83 C66.24186602 84.51495215 67.88113905 87.12759895 70 91 C70.75 94.875 70.75 94.875 71 98 C75.62 97.67 80.24 97.34 85 97 C83.9584375 96.21238281 82.916875 95.42476563 81.84375 94.61328125 C73.69826265 88.4313355 65.65755742 82.15099542 57.74658203 75.67163086 C52.64606818 71.50198287 47.45903612 67.46578841 42.22265625 63.46875 C33.92433556 57.13064242 25.75886322 50.61840095 17.61328125 44.0859375 C10.89634029 38.72443305 4.14801532 33.39958817 -2.6796875 28.1796875 C-3.26903076 27.72899902 -3.85837402 27.27831055 -4.46557617 26.81396484 C-6.0937477 25.57154046 -7.72452994 24.33253953 -9.35546875 23.09375 C-11.39611113 21.47811586 -13.22997991 19.8977535 -15 18 C-14.67 17.34 -14.34 16.68 -14 16 C-13.33097656 16.57105469 -12.66195312 17.14210938 -11.97265625 17.73046875 C-5.74846693 22.98552255 0.58802234 28.05576538 7.0625 33 C8.16936157 33.84534302 8.16936157 33.84534302 9.29858398 34.70776367 C12.16153414 36.88352634 15.006547 39.00436467 18 41 C17.94436349 39.16531168 17.94436349 39.16531168 17 37 C15.5459375 35.7934375 15.5459375 35.7934375 14.0625 34.5625 C10.87482776 31.89526405 10.18368696 30.84139918 9 27 C8.83991371 25.14982241 8.73655759 23.29394232 8.6875 21.4375 C8.45762459 17.04790119 8.45762459 17.04790119 5.6875 13.75 C4.800625 13.1725 3.91375 12.595 3 12 C0.54870824 8.86143018 -1.09823885 6.15430651 -0.75 2.0625 C-0.5025 1.381875 -0.255 0.70125 0 0 Z M1 2 C1.61184508 7.20068318 3.65422311 10.98617267 7.65625 14.421875 C12.35511398 17.69567368 16.62052191 18.71805484 22.2890625 19.25 C30.65265246 21.56384621 34.65058372 30.12050214 38.96875 36.96289062 C42.15923453 41.83724199 45.16568078 45.20132861 49.96044922 48.50024414 C53.67387068 51.23085798 56.70279422 54.67364113 59.875 58 C67.17522482 65.47329232 74.24312425 72.61793736 85.23828125 73.09765625 C85.92277344 73.08605469 86.60726562 73.07445312 87.3125 73.0625 C89.1378125 73.0315625 89.1378125 73.0315625 91 73 C89.94996932 69.42989569 88.65233311 67.59501239 85.875 65.25 C83.82365811 63.34730608 83.06825966 62.49280143 82.6796875 59.6875 C82.75 57.25 82.75 57.25 82.984375 54.953125 C82.98953125 54.30859375 82.9946875 53.6640625 83 53 C82.34 52.34 81.68 51.68 81 51 C76.24165426 51.45317578 71.61946082 52.80531186 67 54 C67.2165625 53.40832031 67.433125 52.81664062 67.65625 52.20703125 C67.9346875 51.41683594 68.213125 50.62664062 68.5 49.8125 C68.7784375 49.03519531 69.056875 48.25789063 69.34375 47.45703125 C70.07198994 44.73046623 70.38867588 42.80464983 70 40 C66.04503618 34.65347483 60.80653307 30.41877678 54.921875 27.36328125 C53 26 53 26 50.78515625 22.87890625 C49.26436849 20.98299084 48.47702576 20.12217112 46.10205078 19.51391602 C43.93529436 19.41041177 41.85117827 19.4741806 39.6875 19.625 C38.94693359 19.65207031 38.20636719 19.67914063 37.44335938 19.70703125 C35.62764002 19.77731716 33.81343199 19.88492911 32 20 C31.71125 19.05125 31.4225 18.1025 31.125 17.125 C30.23174891 13.94788422 30.23174891 13.94788422 28 12 C26.2365625 11.690625 26.2365625 11.690625 24.4375 11.375 C20.41122306 10.50445363 18.50065814 8.77619685 15.625 5.875 C12.20145845 2.56497903 10.23362251 1.45941222 5.4375 1.5 C3.95435119 1.62641756 2.4719905 1.77874047 1 2 Z " fill="#412C27" transform="translate(74,80)"/>
<path d="M0 0 C0.80050781 0.22042969 1.60101563 0.44085938 2.42578125 0.66796875 C3.63814453 0.98701172 3.63814453 0.98701172 4.875 1.3125 C5.79732422 1.58126953 5.79732422 1.58126953 6.73828125 1.85546875 C7.06828125 4.16546875 7.39828125 6.47546875 7.73828125 8.85546875 C11.99651363 10.5587617 15.82920475 11.9126557 20.36328125 12.60546875 C24.72475102 13.51851 26.81460302 15.35432818 29.64453125 18.7109375 C31.1504864 21.66368527 31.31947606 24.58959369 31.73828125 27.85546875 C26.41813609 27.97929939 21.09883411 28.06991551 15.77758789 28.13012695 C13.96851993 28.15523265 12.15955303 28.1893247 10.35083008 28.23266602 C7.74665374 28.29349454 5.14382094 28.32171684 2.5390625 28.34375 C1.73366531 28.36955643 0.92826813 28.39536285 0.09846497 28.42195129 C-4.23595813 28.42410397 -5.73788667 28.29933619 -9.17407227 25.38769531 C-9.86299561 24.55206055 -10.55191895 23.71642578 -11.26171875 22.85546875 C-13.36673356 21.89626874 -15.36433662 21.33313869 -17.58984375 20.7265625 C-19.26171875 19.85546875 -19.26171875 19.85546875 -19.99609375 17.765625 C-20.08375 17.13527344 -20.17140625 16.50492188 -20.26171875 15.85546875 C-19.68164062 15.67113281 -19.1015625 15.48679688 -18.50390625 15.296875 C-12.48963635 13.063854 -9.74710148 10.5187201 -6.55078125 4.9765625 C-3.39452056 -0.216921 -3.39452056 -0.216921 0 0 Z " fill="#F6D804" transform="translate(111.26171875,149.14453125)"/>
<path d="M0 0 C4.40711362 0.90254614 6.90168828 2.685527 10 6 C10.1875 9.625 10.1875 9.625 9 13 C5.90192613 15.58172823 2.95464558 16.43505063 -1 17 C-0.55966008 18.98020421 -0.55966008 18.98020421 1 21 C2.94610045 21.87017267 4.88239015 22.50213556 6.9296875 23.09375 C9 24 9 24 10.57177734 26.03222656 C14.19139753 28.96548 17.39875321 28.50280289 21.921875 28.390625 C22.78186096 28.38496521 23.64184692 28.37930542 24.52789307 28.37347412 C27.26916649 28.35111951 30.00912304 28.30092602 32.75 28.25 C34.61065818 28.22993376 36.47133689 28.21168321 38.33203125 28.1953125 C42.88852666 28.15125784 47.44404022 28.08223754 52 28 C52 28.66 52 29.32 52 30 C23.32791227 30.92865061 -5.31413132 31.12318038 -34 31 C-34 29.68 -34 28.36 -34 27 C-32.97261719 26.5875 -31.94523437 26.175 -30.88671875 25.75 C-22.83334394 22.42405067 -15.95308572 19.00501711 -9.13671875 13.50390625 C-7 12 -7 12 -4 12 C-4.268125 11.319375 -4.53625 10.63875 -4.8125 9.9375 C-5.09224822 5.5547779 -2.7158695 3.26092289 0 0 Z " fill="#BD2A51" transform="translate(92,148)"/>
<path d="M0 0 C0.99 0.495 0.99 0.495 2 1 C1.54625 1.4125 1.0925 1.825 0.625 2.25 C-1.0843807 3.86541445 -1.0843807 3.86541445 -1.67578125 5.8359375 C-7.27438582 14.98527948 -24.34267713 19.57480932 -34.15625 21.96484375 C-54.69079047 26.12485841 -76.32476224 23.48630708 -95 14 C-96.35914385 13.03537273 -97.70240602 12.04595776 -99 11 C-98.67 10.34 -98.34 9.68 -98 9 C-94.35740735 9.58668306 -91.57487822 10.61564305 -88.3125 12.3125 C-67.9934733 21.68213162 -45.1229549 21.21133384 -24.375 13.75 C-15.36668502 10.38278437 -7.31867387 6.34285069 0 0 Z " fill="#332F2D" transform="translate(173,185)"/>
<path d="M0 0 C10.28130672 -0.53901996 10.28130672 -0.53901996 15 3 C15.66 3 16.32 3 17 3 C19.67113987 3.30036914 22.33399642 3.65599954 25 4 C24.125 7.875 24.125 7.875 23 9 C24.093125 9.226875 25.18625 9.45375 26.3125 9.6875 C30 11 30 11 31.9375 13.4375 C33 16 33 16 33 19 C34.2065625 18.7525 34.2065625 18.7525 35.4375 18.5 C43.88158173 17.31486572 43.88158173 17.31486572 48 18 C50.7491087 20.15147637 52.45062269 22.13669279 54.3125 25.0625 C56.11639599 27.13363985 57.21265171 27.61859665 59.6875 28.6875 C65.00419353 31.19761182 68.8923811 35.02275671 72 40 C72.14995332 44.49859969 70.84936663 47.93139342 69 52 C70.546875 51.505 70.546875 51.505 72.125 51 C75.50661027 50.04164891 78.46720504 49.67883682 82 50 C83.485 50.99 83.485 50.99 85 52 C85.27028374 55.71640139 85.180933 58.457201 84 62 C84.5775 62.226875 85.155 62.45375 85.75 62.6875 C88.59739809 64.34848222 90.12067193 66.31524561 92 69 C92 69.66 92 70.32 92 71 C90 71 90 71 88.30859375 69.35546875 C87.69113281 68.64003906 87.07367188 67.92460937 86.4375 67.1875 C85.81746094 66.47980469 85.19742188 65.77210938 84.55859375 65.04296875 C81.61260265 61.18143154 81.91145434 57.69291997 82 53 C78.29511898 51.62782185 76.5574796 52.56006778 73 54 C69.6875 54.125 69.6875 54.125 67 54 C68 47 68 47 69.0625 43.5625 C68.9889306 39.36904438 68.37549013 38.80336668 65.5625 35.875 C62.26991699 32.88174272 58.89202313 30.46948586 54.95703125 28.3984375 C53 27 53 27 50.765625 23.87890625 C48.20952752 20.62828559 48.20952752 20.62828559 44.15234375 20.44140625 C42.74697749 20.46270468 41.34179353 20.50361338 39.9375 20.5625 C32.57073755 20.52891045 32.57073755 20.52891045 30.34765625 18.46875 C29.5416192 16.65609526 28.76982263 14.82832876 28 13 C24.59313076 12.07418045 24.59313076 12.07418045 22.19921875 11.7265625 C19.26863395 10.7583764 17.79495345 9.11129408 15.625 6.9375 C11.4996776 2.95616791 8.5367783 2.0754771 2.87109375 1.9375 C2.25363281 1.958125 1.63617188 1.97875 1 2 C3.8167646 8.84656212 3.8167646 8.84656212 8.875 13.9375 C11 16 11 16 11.08984375 18.67578125 C10.83682717 21.48034534 10.4829812 24.2264446 10 27 C9.67 27 9.34 27 9 27 C8.98582031 26.25234375 8.97164062 25.5046875 8.95703125 24.734375 C8.89384484 18.6056368 8.89384484 18.6056368 5.6875 13.75 C4.800625 13.1725 3.91375 12.595 3 12 C0.54870824 8.86143018 -1.09823885 6.15430651 -0.75 2.0625 C-0.5025 1.381875 -0.255 0.70125 0 0 Z " fill="#44332B" transform="translate(74,80)"/>
<path d="M0 0 C4.40711362 0.90254614 6.90168828 2.685527 10 6 C10.1875 9.625 10.1875 9.625 9 13 C5.90192613 15.58172823 2.95464558 16.43505063 -1 17 C-0.55966008 18.98020421 -0.55966008 18.98020421 1 21 C2.94610045 21.87017267 4.88239015 22.50213556 6.9296875 23.09375 C9 24 9 24 10.57177734 26.03222656 C14.19139753 28.96548 17.39875321 28.50280289 21.921875 28.390625 C22.78186096 28.38496521 23.64184692 28.37930542 24.52789307 28.37347412 C27.26916649 28.35111951 30.00912304 28.30092602 32.75 28.25 C34.61065818 28.22993376 36.47133689 28.21168321 38.33203125 28.1953125 C42.88852666 28.15125784 47.44404022 28.08223754 52 28 C52 28.66 52 29.32 52 30 C23.32791227 30.92865061 -5.31413132 31.12318038 -34 31 C-34 30.67 -34 30.34 -34 30 C-11.725 29.505 -11.725 29.505 11 29 C6.56328781 24.83080491 6.56328781 24.83080491 2.375 24.25 C-1 23 -1 23 -2.078125 21.3828125 C-2.9168475 19.26956071 -3.49204002 17.21548699 -4 15 C-4.18820313 14.32066406 -4.37640625 13.64132813 -4.5703125 12.94140625 C-5.20969637 9.95955237 -5.35149151 7.68352776 -3.94140625 4.94140625 C-2.5625 3 -2.5625 3 0 0 Z " fill="#493A19" transform="translate(92,148)"/>
<path d="M0 0 C3.64014984 0.44703594 5.05600295 0.83459921 7.5625 3.4375 C7.8925 4.4275 8.2225 5.4175 8.5625 6.4375 C8.8925 5.1175 9.2225 3.7975 9.5625 2.4375 C11.2125 2.4375 12.8625 2.4375 14.5625 2.4375 C14.2325 7.3875 13.9025 12.3375 13.5625 17.4375 C11.5825 17.4375 9.6025 17.4375 7.5625 17.4375 C7.2325 16.1175 6.9025 14.7975 6.5625 13.4375 C6.046875 13.788125 5.53125 14.13875 5 14.5 C1.5413559 15.83024773 -0.8815159 15.29357025 -4.4375 14.4375 C-6.91092266 10.72736601 -6.82253486 8.82689738 -6.4375 4.4375 C-4.84215368 0.77758786 -4.00027775 0.50912626 0 0 Z " fill="#D6D5D5" transform="translate(94.4375,211.5625)"/>
<path d="M0 0 C4.07530974 2.31035218 7.72189333 5.02258318 11.375 7.9375 C11.98077881 8.41695068 12.58655762 8.89640137 13.21069336 9.39038086 C18.31222364 13.43402933 23.38598521 17.51255296 28.46240234 21.58764648 C32.43935832 24.77302239 36.45083396 27.9070601 40.5 31 C45.97613077 35.18643783 51.36389843 39.47314129 56.73266602 43.79614258 C60.08889987 46.49271355 63.47056793 49.13324086 66.9375 51.6875 C67.948125 52.450625 68.95875 53.21375 70 54 C70 54.33 70 54.66 70 55 C50.53 55 31.06 55 11 55 C11 54.67 11 54.34 11 54 C23.87 54 36.74 54 50 54 C46.48524202 46.07284397 46.48524202 46.07284397 42 39 C46.24186602 40.51495215 47.88113905 43.12759895 50 47 C50.75 50.875 50.75 50.875 51 54 C55.62 53.67 60.24 53.34 65 53 C63.9584375 52.21238281 62.916875 51.42476562 61.84375 50.61328125 C53.69826265 44.4313355 45.65755742 38.15099542 37.74658203 31.67163086 C32.6525245 27.50726089 27.47252052 23.47560169 22.2421875 19.484375 C18.63602174 16.73025211 15.06640622 13.93032295 11.5 11.125 C10.92427246 10.67237793 10.34854492 10.21975586 9.75537109 9.75341797 C8.16866354 8.50428792 6.58427328 7.252216 5 6 C4.0409375 5.27554688 3.081875 4.55109375 2.09375 3.8046875 C1.4028125 3.20914063 0.711875 2.61359375 0 2 C0 1.34 0 0.68 0 0 Z " fill="#252129" transform="translate(94,124)"/>
<path d="M0 0 C2.4375 1.5625 2.4375 1.5625 4 4 C4.51501365 7.66947222 4.8195184 9.89543172 2.5625 12.9375 C-1.29070863 14.53517187 -4.89453659 14.6920194 -9 14 C-11.7497313 11.83354504 -11.92838713 10.42967724 -12.5 7 C-12 4 -12 4 -9.9375 1.625 C-6.26691544 -0.40553614 -4.13807018 -0.60190112 0 0 Z " fill="#1D1C1B" transform="translate(225,101)"/>
<path d="M0 0 C3.84315786 0.70588614 5.53085092 1.57055108 8.0625 4.5625 C8.22118233 8.92626414 7.45874348 11.00309744 4.9375 14.5625 C2.0625 16.5625 2.0625 16.5625 -1.625 16.5625 C-4.9375 15.5625 -4.9375 15.5625 -6.9375 12.5625 C-7.39081315 8.48268168 -7.31389692 6.24290983 -5.3125 2.625 C-2.9375 0.5625 -2.9375 0.5625 0 0 Z " fill="#1C1B1A" transform="translate(172.9375,22.4375)"/>
<path d="M0 0 C3.66900829 2.63211465 4.84009531 4.08854326 5.625 8.5625 C5 12 5 12 2.875 14.5 C0 16 0 16 -3.0625 16.0625 C-6.78105976 14.71748902 -8.0288205 13.41165683 -10 10 C-10.60386292 6.3013396 -10.49970879 4.73034361 -8.375 1.625 C-5.24988831 -0.51323431 -3.71837535 -0.6829669 0 0 Z " fill="#171615" transform="translate(55,32)"/>
<path d="M0 0 C2.5 1 2.5 1 4 3 C4.55579377 5.77896887 4.55579377 8.22103113 4 11 C2.5 13 2.5 13 0 14 C-3.51599278 14.49521025 -6.74351663 14.62824168 -10 13 C-11.63102777 9.73794446 -11.51981506 6.56444611 -11 3 C-8.86324407 -1.27351186 -4.20095611 -0.59168396 0 0 Z " fill="#141312" transform="translate(21,119)"/>
<path d="M0 0 C5.26086957 2.56521739 5.26086957 2.56521739 7 5 C7.5 7.875 7.5 7.875 7 11 C4.76866787 13.8688556 2.87064987 15.56467506 -0.375 17.1875 C-4.63875411 16.88294613 -7.06399709 13.9190807 -10 11 C-8.55218207 7.55571735 -6.72305391 5.63869038 -3.875 3.25 C-3.15054688 2.63640625 -2.42609375 2.0228125 -1.6796875 1.390625 C-0.84824219 0.70226563 -0.84824219 0.70226563 0 0 Z " fill="#1E1D1C" transform="translate(192,37)"/>
<path d="M0 0 C4.87731839 1.44513138 4.87731839 1.44513138 6.375 4 C6.94620959 7.753663 6.65815544 9.50992328 4.75 12.8125 C1.82373379 15.5077452 0.35463376 16.16243403 -3.625 16 C-6.98903126 13.58667322 -8.40008118 12.07961035 -9.25 8 C-8.11814245 2.56708374 -5.59993233 0 0 0 Z " fill="#191818" transform="translate(51.625,188)"/>
<path d="M0 0 C9.625 -0.25 9.625 -0.25 13 2 C13.31845551 5.10494126 12.99424641 7.01726077 12 10 C12.88319294 13.15020361 12.88319294 13.15020361 14 16 C12.35 16 10.7 16 9 16 C8.34 14.02 7.68 12.04 7 10 C6.34 10 5.68 10 5 10 C5 11.98 5 13.96 5 16 C3.35 16 1.7 16 0 16 C0 10.72 0 5.44 0 0 Z " fill="#252423" transform="translate(111,8)"/>
<path d="M0 0 C1.66791208 2.50186812 3.23831245 5.02078016 4.78515625 7.59765625 C5.31560547 8.48130859 5.84605469 9.36496094 6.39257812 10.27539062 C6.94365234 11.19513672 7.49472656 12.11488281 8.0625 13.0625 C8.61744141 13.98611328 9.17238281 14.90972656 9.74414062 15.86132812 C10.27330078 16.74369141 10.80246094 17.62605469 11.34765625 18.53515625 C12.07480835 19.74764038 12.07480835 19.74764038 12.81665039 20.98461914 C13.58806039 22.29841933 14.31865657 23.63731315 15 25 C14.505 26.485 14.505 26.485 14 28 C1.01953601 29.23408822 -11.96495263 29.22185891 -24.9921875 29.31640625 C-27.39356817 29.33701506 -29.79494553 29.35801245 -32.19631958 29.37937927 C-38.47285256 29.4341949 -44.74941604 29.48378037 -51.02600098 29.53222656 C-57.44835071 29.58274011 -63.87065693 29.63826929 -70.29296875 29.69335938 C-82.86194165 29.80044436 -95.43095185 29.90216729 -108 30 C-108 29.34 -108 28.68 -108 28 C-48.105 27.505 -48.105 27.505 13 27 C6.77444406 15.83166288 6.77444406 15.83166288 0 5 C-0.25 2.125 -0.25 2.125 0 0 Z " fill="#4E4849" transform="translate(166,151)"/>
<path d="M0 0 C4.95 0 9.9 0 15 0 C15.25 9.625 15.25 9.625 13 13 C10.375 13.1875 10.375 13.1875 8 13 C7.67 12.01 7.34 11.02 7 10 C6.05125 10.495 5.1025 10.99 4.125 11.5 C1 13 1 13 -1 13 C-1 11.35 -1 9.7 -1 8 C1.64738916 6.5393715 2.89448334 6 6 6 C6 5.34 6 4.68 6 4 C4.02 4 2.04 4 0 4 C0 2.68 0 1.36 0 0 Z " fill="#353433" transform="translate(214,119)"/>
<path d="M0 0 C4.07568771 3.65623443 6.43820118 7.2414731 8.5625 12.3125 C8.85842041 13.00601563 9.15434082 13.69953125 9.45922852 14.4140625 C13.52195944 24.28466459 16.29677916 34.26846563 16 45 C15.67 45 15.34 45 15 45 C15 42.69 15 40.38 15 38 C14.34 38 13.68 38 13 38 C13 45.26 13 52.52 13 60 C12.67 60 12.34 60 12 60 C12.00112793 59.34741211 12.00225586 58.69482422 12.00341797 58.02246094 C11.93075892 39.98406208 10.29080525 22.80056858 0.8828125 6.97265625 C-0.20516325 4.54155999 -0.15574202 2.63387241 0 0 Z " fill="#4B4745" transform="translate(193,68)"/>
<path d="M0 0 C4.59003684 1.49843604 7.98994849 4.12131001 11.6875 7.125 C12.30834473 7.6214502 12.92918945 8.11790039 13.56884766 8.62939453 C14.81569303 9.62732224 16.06052983 10.62776535 17.30322266 11.63085938 C19.48436311 13.39083573 21.68069581 15.13147816 23.875 16.875 C27.4929669 19.77530462 31.09002456 22.70066945 34.68457031 25.62988281 C42.14122272 31.70449846 49.65335141 37.69856824 57.23388672 43.61767578 C59.1192537 45.09333902 60.99957323 46.57525469 62.87890625 48.05859375 C63.51618652 48.56116699 64.1534668 49.06374023 64.81005859 49.58154297 C66.03102626 50.54466259 67.25143476 51.50849166 68.47119141 52.47314453 C70.93340258 54.41274037 73.3901674 56.2601116 76 58 C76 58.66 76 59.32 76 60 C72.79076115 58.54456288 70.27943997 56.73586291 67.5625 54.5 C63.71390445 51.37055807 59.82144187 48.31767871 55.875 45.3125 C50.83921514 41.46740184 45.90476983 37.51059796 41 33.5 C35.15470362 28.72184562 29.23900042 24.06134154 23.23828125 19.48046875 C19.65696315 16.74506174 16.10719191 13.97013477 12.5625 11.1875 C11.99515137 10.74325684 11.42780273 10.29901367 10.84326172 9.84130859 C7.17390508 6.95723549 3.53149796 4.05210909 0 1 C0 0.67 0 0.34 0 0 Z " fill="#35313A" transform="translate(102,60)"/>
<path d="M0 0 C0.66 0 1.32 0 2 0 C2.41176754 3.60296594 2.1535853 4.78402067 0 7.8125 C-0.66 8.534375 -1.32 9.25625 -2 10 C1.465 9.505 1.465 9.505 5 9 C5 10.32 5 11.64 5 13 C-2.425 14.485 -2.425 14.485 -10 16 C-12.28965517 7.9862069 -12.28965517 7.9862069 -11 4 C-10.67 3.67 -10.34 3.34 -10 3 C-8.329375 3.061875 -8.329375 3.061875 -6.625 3.125 C-3.07384091 3.37191292 -3.07384091 3.37191292 -1.1875 1.5 C-0.795625 1.005 -0.40375 0.51 0 0 Z " fill="#2D2C2B" transform="translate(24,134)"/>
<path d="M0 0 C1.58468677 0.45363171 3.16769924 0.91311452 4.75 1.375 C5.63171875 1.63023438 6.5134375 1.88546875 7.421875 2.1484375 C9.76080572 2.9209934 11.83442562 3.83625676 14 5 C13.67 6.32 13.34 7.64 13 9 C10.36 9.33 7.72 9.66 5 10 C5 10.66 5 11.32 5 12 C7.97 12.495 7.97 12.495 11 13 C11 14.32 11 15.64 11 17 C5.54520815 16.43179252 1.08940744 15.05362055 -4 13 C-3.69140625 11.078125 -3.69140625 11.078125 -3 9 C0.0625 7.75 0.0625 7.75 3 7 C1.68 6.01 0.36 5.02 -1 4 C-0.67 2.68 -0.34 1.36 0 0 Z " fill="#1F1E1D" transform="translate(17,77)"/>
<path d="M0 0 C0.25 2.25 0.25 2.25 0 5 C-2 7.3125 -2 7.3125 -4 9 C-2.02 9 -0.04 9 2 9 C2.33 10.32 2.66 11.64 3 13 C1.44033782 13.508783 -0.12289241 14.00663469 -1.6875 14.5 C-2.55761719 14.7784375 -3.42773438 15.056875 -4.32421875 15.34375 C-6.99391677 15.99850805 -9.26396684 16.11831495 -12 16 C-12.25 13.75 -12.25 13.75 -12 11 C-10 8.6875 -10 8.6875 -8 7 C-10.31 7 -12.62 7 -15 7 C-15 5.68 -15 4.36 -15 3 C-13.44033782 2.491217 -11.87710759 1.99336531 -10.3125 1.5 C-9.44238281 1.2215625 -8.57226562 0.943125 -7.67578125 0.65625 C-5.00608323 0.00149195 -2.73603316 -0.11831495 0 0 Z " fill="#1A1918" transform="translate(224,83)"/>
<path d="M0 0 C1.65 0 3.3 0 5 0 C5.27672202 1.91299138 5.52042815 3.83077936 5.75 5.75 C5.88921875 6.81734375 6.0284375 7.8846875 6.171875 8.984375 C6 12 6 12 4.23828125 14.35546875 C2 16 2 16 -1.5625 16.5625 C-5 16 -5 16 -6.875 14.125 C-8.43061634 9.8038435 -8.74299555 5.56404458 -9 1 C-7.35 1 -5.7 1 -4 1 C-3.67 4.63 -3.34 8.26 -3 12 C-1.68 12 -0.36 12 1 12 C0.67 8.04 0.34 4.08 0 0 Z " fill="#242322" transform="translate(102,9)"/>
<path d="M0 0 C0.61875 0.28875 1.2375 0.5775 1.875 0.875 C2.205 1.865 2.535 2.855 2.875 3.875 C4.0196875 3.9678125 4.0196875 3.9678125 5.1875 4.0625 C7.875 4.875 7.875 4.875 9.6875 7.1875 C10.875 9.875 10.875 9.875 10.875 13.875 C6.58106672 14.5011986 3.22670427 14.76059935 -0.50390625 12.31640625 C-2.46723246 10.57083715 -4.32990915 8.79237225 -6.125 6.875 C-5.2927749 3.11832034 -4.46609219 -0.26271131 0 0 Z " fill="#524038" transform="translate(79.125,65.125)"/>
<path d="M0 0 C4.37859255 0.50522222 6.81651224 3.17827222 10 6 C9.38722388 8.96175123 8.74627478 10.38058783 7 13 C4.22736337 14.4987225 2.47147117 15.02192889 -0.6875 14.875 C-3 14 -3 14 -4.375 12.1875 C-5.1383897 9.51563604 -5.05792125 8.56923731 -4 6 C-2.71203834 3.97048465 -1.38442 1.96498322 0 0 Z " fill="#F1F1F1" transform="translate(92,148)"/>
<path d="M0 0 C1.65 0.33 3.3 0.66 5 1 C5 6.28 5 11.56 5 17 C3.35 16.67 1.7 16.34 0 16 C-0.33 15.01 -0.66 14.02 -1 13 C-3.31 13 -5.62 13 -8 13 C-8 8.33514144 -7.28526546 7.58887121 -4.3125 4.1875 C-3.62800781 3.37667969 -2.94351563 2.56585937 -2.23828125 1.73046875 C-1.49964844 1.15941406 -0.76101562 0.58835937 0 0 Z " fill="#2C2B2A" transform="translate(158,16)"/>
<path d="M0 0 C2.4375 1 2.4375 1 4 2 C4 2.99 4 3.98 4 5 C2.700625 4.814375 1.40125 4.62875 0.0625 4.4375 C-2.08575543 4.1018371 -2.08575543 4.1018371 -4 4 C-5.35618499 5.12534105 -5.35618499 5.12534105 -5.0625 8.0625 C-5.041875 9.031875 -5.02125 10.00125 -5 11 C-3.68 11.33 -2.36 11.66 -1 12 C-1 11.34 -1 10.68 -1 10 C-1.66 10 -2.32 10 -3 10 C-3 9.01 -3 8.02 -3 7 C-0.69 7.33 1.62 7.66 4 8 C3.40138258 10.35171131 2.73075648 12.6859378 2 15 C-0.84083641 16.42041821 -2.85477278 16.31452272 -6 16 C-8.375 14.5 -8.375 14.5 -10 12 C-10.6948487 8.19004307 -10.45171582 5.06286075 -8.9375 1.5 C-5.9659372 -0.80056475 -3.64662949 -0.38385574 0 0 Z " fill="#0E0D0C" transform="translate(145,11)"/>
<path d="M0 0 C1.65 0 3.3 0 5 0 C5.67220351 1.93558599 6.33758077 3.87354372 7 5.8125 C7.556875 7.43091797 7.556875 7.43091797 8.125 9.08203125 C9 12 9 12 9 15 C7.35 15 5.7 15 4 15 C4 14.34 4 13.68 4 13 C2.35 13 0.7 13 -1 13 C-1 13.66 -1 14.32 -1 15 C-2.65 15 -4.3 15 -6 15 C-4.64475824 9.57903298 -2.63365987 4.9221313 0 0 Z " fill="#2B2A2A" transform="translate(115,215)"/>
<path d="M0 0 C0.99 0.33 1.98 0.66 3 1 C2.67 1.598125 2.34 2.19625 2 2.8125 C0.79212012 5.05386471 0.79212012 5.05386471 1 8 C1.99 6.68 2.98 5.36 4 4 C4.99 4.33 5.98 4.66 7 5 C6.01 7.31 5.02 9.62 4 12 C4.99 12 5.98 12 7 12 C7.66 10.35 8.32 8.7 9 7 C10.32 7.33 11.64 7.66 13 8 C11.34832443 11.5786304 9.21713508 14.74820188 7 18 C1.91061189 16.40956621 -1.87456643 13.2553049 -6 10 C-4.6302836 6.00499382 -2.74277578 3.19990508 0 0 Z " fill="#1C1B1A" transform="translate(34,48)"/>
<path d="M0 0 C3.26782914 1.08927638 3.81937333 1.68347929 5.75 4.375 C6.19859375 4.98085938 6.6471875 5.58671875 7.109375 6.2109375 C8 8 8 8 7 11 C3.66462511 9.88820837 2.36292656 8.52588702 0 6 C0.7734375 7.1446875 0.7734375 7.1446875 1.5625 8.3125 C2.036875 9.199375 2.51125 10.08625 3 11 C2.67 11.99 2.34 12.98 2 14 C1.34 14 0.68 14 0 14 C-0.66 12.35 -1.32 10.7 -2 9 C-2.99 9 -3.98 9 -5 9 C-4.484375 9.928125 -3.96875 10.85625 -3.4375 11.8125 C-2 15 -2 15 -3 18 C-3.66 18 -4.32 18 -5 18 C-6.5078125 16.3203125 -6.5078125 16.3203125 -8.125 14.125 C-8.66382813 13.40570313 -9.20265625 12.68640625 -9.7578125 11.9453125 C-11 10 -11 10 -11 8 C-8.84765625 6.30859375 -8.84765625 6.30859375 -6.0625 4.4375 C-2.88197669 2.40497959 -2.88197669 2.40497959 0 0 Z " fill="#1E1D1C" transform="translate(203,49)"/>
<path d="M0 0 C3 1 3 1 4.9375 3.4375 C6.91391935 5.89305131 8.12464744 6.87039721 11 8 C11.268125 7.38125 11.53625 6.7625 11.8125 6.125 C13 4 13 4 16 2 C19.58988752 2.3778829 22.69657291 3.58424553 26 5 C26.495 8.465 26.495 8.465 27 12 C30.77893406 13.1021891 34.53651414 14.12698697 38.375 15 C39.57125 15.33 40.7675 15.66 42 16 C42.495 16.99 42.495 16.99 43 18 C29.06451613 17.06451613 29.06451613 17.06451613 25 13 C24.95907063 10.66702567 24.95758277 8.33294775 25 6 C21.95834885 5.27106399 19.13183573 4.78382952 16 5 C13.06644799 7.60354882 13.06644799 7.60354882 11 11 C9.68456137 12.35099103 8.35824882 13.69205669 7 15 C7.66 13.02 8.32 11.04 9 9 C8.401875 8.731875 7.80375 8.46375 7.1875 8.1875 C5.01273336 7.00691239 3.73183488 5.73183488 2 4 C1.01 3.67 0.02 3.34 -1 3 C-1.433125 3.8971875 -1.433125 3.8971875 -1.875 4.8125 C-3 7 -3 7 -5 10 C-4.68493373 13.14221967 -4.68493373 13.14221967 -4 16 C-4.66 16.33 -5.32 16.66 -6 17 C-6 16.34 -6 15.68 -6 15 C-7.98 15.99 -7.98 15.99 -10 17 C-10 10.46239525 -4.13363684 4.72415639 0 0 Z " fill="#2E252A" transform="translate(93,145)"/>
<path d="M0 0 C0.66 0.33 1.32 0.66 2 1 C0.35 2.65 -1.3 4.3 -3 6 C34.95 6 72.9 6 112 6 C112.495 6.99 112.495 6.99 113 8 C73.07 8 33.14 8 -8 8 C-5.33333333 5.33333333 -2.66666667 2.66666667 0 0 Z " fill="#E9E9E8" transform="translate(66,48)"/>
<path d="M0 0 C4.72065967 1.54269924 9.41664092 3.07794619 14 5 C13.53199289 9.05606165 13.12046792 12.46588679 11 16 C10.01 15.67 9.02 15.34 8 15 C8.875 10.25 8.875 10.25 10 8 C9.01 8 8.02 8 7 8 C6.67 9.65 6.34 11.3 6 13 C5.01 13 4.02 13 3 13 C3.66 10.69 4.32 8.38 5 6 C3.68 6 2.36 6 1 6 C0.67 7.98 0.34 9.96 0 12 C-0.99 12 -1.98 12 -3 12 C-2.19642857 3.96428571 -2.19642857 3.96428571 0 0 Z " fill="#151413" transform="translate(209,147)"/>
<path d="M0 0 C0 0.66 0 1.32 0 2 C-1.2065625 2.433125 -1.2065625 2.433125 -2.4375 2.875 C-5.1326468 3.73262568 -5.1326468 3.73262568 -6 6 C-5.4225 5.649375 -4.845 5.29875 -4.25 4.9375 C-1.64198224 3.85082593 -0.60582371 4.06934867 2 5 C2 5.66 2 6.32 2 7 C0.35 7.66 -1.3 8.32 -3 9 C-0.3333581 10.33332095 1.16680303 9.67102033 4 9 C4.33 9.99 4.66 10.98 5 12 C3.73308493 12.67408308 2.46129251 13.33900497 1.1875 14 C0.47980469 14.37125 -0.22789062 14.7425 -0.95703125 15.125 C-3 16 -3 16 -6 16 C-6.86604534 14.23494565 -7.71748642 12.46271926 -8.5625 10.6875 C-9.03816406 9.70136719 -9.51382813 8.71523437 -10.00390625 7.69921875 C-11 5 -11 5 -10 2 C-4.03924775 -1.70891251 -4.03924775 -1.70891251 0 0 Z " fill="#1A1A1A" transform="translate(167,204)"/>
<path d="M0 0 C2.4375 0.8125 2.4375 0.8125 4.4375 3.8125 C7.52115871 4.0627157 7.52115871 4.0627157 10.4375 3.8125 C10.7675 5.1325 11.0975 6.4525 11.4375 7.8125 C9.50517179 8.67830287 7.56642806 9.52979941 5.625 10.375 C4.54605469 10.85066406 3.46710937 11.32632813 2.35546875 11.81640625 C-0.5625 12.8125 -0.5625 12.8125 -3.5625 11.8125 C-5.32972436 8.4640749 -6.07223716 5.58455495 -5.5625 1.8125 C-2.5625 -0.1875 -2.5625 -0.1875 0 0 Z " fill="#383736" transform="translate(22.5625,152.1875)"/>
<path d="M0 0 C3.2826932 1.49076434 5.93077441 3.38620321 8.75 5.625 C9.94882813 6.57246094 9.94882813 6.57246094 11.171875 7.5390625 C11.77515625 8.02117187 12.3784375 8.50328125 13 9 C12.67 9.66 12.34 10.32 12 11 C9.35139573 11.59355614 6.70802678 11.74209269 4 12 C3.67 13.65 3.34 15.3 3 17 C2.34 17 1.68 17 1 17 C-2.64018385 7.24950755 -2.64018385 7.24950755 -2 2 C-1.34 1.34 -0.68 0.68 0 0 Z " fill="#201F1F" transform="translate(173,197)"/>
<path d="M0 0 C0.66 0.99 1.32 1.98 2 3 C-1.01031744 3.93423645 -1.86650268 4.04449911 -5 3 C-5 3.66 -5 4.32 -5 5 C-3.88625 4.95875 -2.7725 4.9175 -1.625 4.875 C2 5 2 5 4 7 C4.3125 10 4.3125 10 4 13 C0.3558226 15.4294516 -1.71241272 15.16179575 -6 15 C-6.33 13.68 -6.66 12.36 -7 11 C-4.69 11.33 -2.38 11.66 0 12 C0 11.01 0 10.02 0 9 C-1.299375 9.020625 -2.59875 9.04125 -3.9375 9.0625 C-5.29165633 9.08399454 -6.64756083 9.07148199 -8 9 C-9 8 -9 8 -9.3125 5.625 C-9 3 -9 3 -7.3125 1.1875 C-4.59130308 -0.20987139 -3.01701597 -0.47637094 0 0 Z " fill="#1C1B1B" transform="translate(153,209)"/>
<path d="M0 0 C5.19644079 1.59890486 10.06612142 3.74138003 15 6 C15 7.65 15 9.3 15 11 C9.66164461 12.92471317 4.65020618 14.39891424 -1 15 C-0.67 13.35 -0.34 11.7 0 10 C2.64 9.34 5.28 8.68 8 8 C5.36 7.01 2.72 6.02 0 5 C0 3.35 0 1.7 0 0 Z " fill="#222120" transform="translate(10,102)"/>
<path d="M0 0 C0.66 0.99 1.32 1.98 2 3 C-1.01031744 3.93423645 -1.86650268 4.04449911 -5 3 C-5 3.99 -5 4.98 -5 6 C-3.081875 5.938125 -3.081875 5.938125 -1.125 5.875 C1.0546875 5.8046875 1.0546875 5.8046875 3 6 C3.66 6.66 4.32 7.32 5 8 C4.84076801 11.10502372 4.42490203 12.55992289 2.25 14.8125 C-0.37152557 16.19608294 -2.07674878 16.24360427 -5 16 C-5.66 14.68 -6.32 13.36 -7 12 C-3.94736336 11.01879536 -2.05263664 11.01879536 1 12 C0.67 11.34 0.34 10.68 0 10 C-2.33247761 9.66073053 -4.66585471 9.32759934 -7 9 C-7.66 8.34 -8.32 7.68 -9 7 C-8.8125 4.5 -8.8125 4.5 -8 2 C-4.79191085 -0.1387261 -3.72301503 -0.47730962 0 0 Z " fill="#0D0B0A" transform="translate(87,13)"/>
<path d="M0 0 C0.763125 0.0825 1.52625 0.165 2.3125 0.25 C2.3125 1.57 2.3125 2.89 2.3125 4.25 C1.3225 4.58 0.3325 4.91 -0.6875 5.25 C-0.6875 6.24 -0.6875 7.23 -0.6875 8.25 C1.6225 8.91 3.9325 9.57 6.3125 10.25 C5.9825 8.27 5.6525 6.29 5.3125 4.25 C6.6325 3.92 7.9525 3.59 9.3125 3.25 C10.6226737 9.44354839 10.6226737 9.44354839 9.375 12.6875 C6.75906637 14.6692679 4.56497869 14.87074613 1.3203125 14.703125 C-2.16020854 13.91763776 -3.67598169 12.07869762 -5.6875 9.25 C-6.29954945 6.11324655 -5.95329497 4.76760073 -4.5 1.9375 C-2.6875 0.25 -2.6875 0.25 0 0 Z " fill="#151413" transform="translate(26.6875,62.75)"/>
<path d="M0 0 C3.60940754 0.44326057 5.11633518 0.79564199 7.5625 3.4375 C7.5625 4.4275 7.5625 5.4175 7.5625 6.4375 C6.2425 6.4375 4.9225 6.4375 3.5625 6.4375 C3.2325 5.7775 2.9025 5.1175 2.5625 4.4375 C1.2425 4.7675 -0.0775 5.0975 -1.4375 5.4375 C-1.4375 7.0875 -1.4375 8.7375 -1.4375 10.4375 C0.5425 10.4375 2.5225 10.4375 4.5625 10.4375 C4.5625 11.7575 4.5625 13.0775 4.5625 14.4375 C-1.71022727 15.88505245 -1.71022727 15.88505245 -4.875 13.9375 C-6.99873198 10.53952883 -6.9301297 8.37853763 -6.4375 4.4375 C-4.84215368 0.77758786 -4.00027775 0.50912626 0 0 Z " fill="#131112" transform="translate(94.4375,211.5625)"/>
<path d="M0 0 C5.00846656 3.70626525 9.92675415 7.50966115 14.8125 11.375 C20.76417701 16.07884835 26.82007512 20.59838003 33 25 C32.39255762 21.41608995 32.02455172 21.02045977 29 18.5 C26 16 26 16 25.125 13.6875 C25.08375 13.130625 25.0425 12.57375 25 12 C25.66 11.67 26.32 11.34 27 11 C27.391875 11.928125 27.78375 12.85625 28.1875 13.8125 C29.69725675 17.16513673 29.69725675 17.16513673 32.6875 18.3125 C33.450625 18.869375 34.21375 19.42625 35 20 C35.44649251 23.0383271 35.28767307 25.95066547 35 29 C32.21835424 27.70529244 29.94869288 26.28363049 27.6015625 24.3125 C26.96355713 23.78325928 26.32555176 23.25401855 25.66821289 22.70874023 C24.99395264 22.14485596 24.31969238 21.58097168 23.625 21 C17.70404382 16.09172207 11.68198955 11.47640806 5.25439453 7.24804688 C1.18530956 4.48015766 1.18530956 4.48015766 0.12109375 1.72265625 C0.08113281 1.15417969 0.04117188 0.58570312 0 0 Z " fill="#322F37" transform="translate(59,96)"/>
<path d="M0 0 C3.0625 0.125 3.0625 0.125 5.0625 1.125 C5.11687607 2.70794782 5.15546271 4.29144256 5.1875 5.875 C5.21070312 6.75671875 5.23390625 7.6384375 5.2578125 8.546875 C5.05389502 11.2385858 4.42801721 12.82404974 3.0625 15.125 C1.1875 14.8125 1.1875 14.8125 -0.9375 14.125 C-3.02307757 10.99663364 -3.30143593 9.63876966 -3.625 6 C-3.71136719 5.11054687 -3.79773438 4.22109375 -3.88671875 3.3046875 C-3.90347656 2.58539063 -3.92023438 1.86609375 -3.9375 1.125 C-2.9375 0.125 -2.9375 0.125 0 0 Z " fill="#543426" transform="translate(104.9375,74.875)"/>
<path d="M0 0 C0.66 0.33 1.32 0.66 2 1 C1.34 2.32 0.68 3.64 0 5 C-0.66 5 -1.32 5 -2 5 C-2 5.99 -2 6.98 -2 8 C-1.01 7.34 -0.02 6.68 1 6 C1.99 6 2.98 6 4 6 C4 6.99 4 7.98 4 9 C3.01 9.495 3.01 9.495 2 10 C2.33 12.31 2.66 14.62 3 17 C1.68 17.33 0.36 17.66 -1 18 C-2.1999038 16.23754778 -3.38459517 14.46473019 -4.5625 12.6875 C-5.22378906 11.70136719 -5.88507812 10.71523438 -6.56640625 9.69921875 C-7.27603516 8.36310547 -7.27603516 8.36310547 -8 7 C-6.88424427 3.65273281 -6.48655378 3.37920252 -3.5625 1.75 C-2.386875 1.1725 -1.21125 0.595 0 0 Z " fill="#1B1A19" transform="translate(65,21)"/>
<path d="M0 0 C5 2 5 2 10 4 C10 4.99 10 5.98 10 7 C5.25 6.125 5.25 6.125 3 5 C3 5.99 3 6.98 3 8 C3.99 8.33 4.98 8.66 6 9 C6 9.99 6 10.98 6 12 C4.02 11.34 2.04 10.68 0 10 C-0.66 11.65 -1.32 13.3 -2 15 C-2.99 14.67 -3.98 14.34 -5 14 C-4.46515599 8.65155992 -2.53309233 4.64203897 0 0 Z " fill="#1D1C1D" transform="translate(72,202)"/>
<path d="M0 0 C3.98467756 0.82292254 6.67947232 2.66053731 10 5 C9.67 5.66 9.34 6.32 9 7 C6.61435923 6.42415568 4.33317216 5.77772405 2 5 C3.32 6.32 4.64 7.64 6 9 C5.67 9.99 5.34 10.98 5 12 C3.02 11.34 1.04 10.68 -1 10 C-1.33 11.32 -1.66 12.64 -2 14 C-3.32 13.67 -4.64 13.34 -6 13 C-5.51675181 7.84535266 -2.81389239 4.18449681 0 0 Z " fill="#1C1B1B" transform="translate(61,196)"/>
<path d="M0 0 C0.66 0 1.32 0 2 0 C3.9907361 12.42604633 3.48133175 23.89822773 0 36 C-2 34 -2 34 -2.1875 30.6875 C-2 27 -2 27 -1.50805664 24.60083008 C-0.98714194 21.93417736 -0.79466116 19.41243687 -0.68359375 16.69921875 C-0.64169922 15.72275391 -0.59980469 14.74628906 -0.55664062 13.74023438 C-0.51732422 12.73283203 -0.47800781 11.72542969 -0.4375 10.6875 C-0.37272461 9.14739258 -0.37272461 9.14739258 -0.30664062 7.57617188 C-0.20093175 5.05090431 -0.09883532 2.52554438 0 0 Z " fill="#2E2926" transform="translate(206,106)"/>
<path d="M0 0 C0.99 0 1.98 0 3 0 C2.85851011 1.6045556 2.71164314 3.20863767 2.5625 4.8125 C2.48128906 5.70582031 2.40007812 6.59914062 2.31640625 7.51953125 C2 10 2 10 1 13 C0.01 13 -0.98 13 -2 13 C-2 11.35 -2 9.7 -2 8 C-3.258125 7.855625 -4.51625 7.71125 -5.8125 7.5625 C-8.42667123 7.26251314 -10.47439892 6.84186703 -13 6 C-13 4.68 -13 3.36 -13 2 C-9.04 2.33 -5.08 2.66 -1 3 C-0.67 2.01 -0.34 1.02 0 0 Z " fill="#171715" transform="translate(224,135)"/>
<path d="M0 0 C1.670625 0.2475 1.670625 0.2475 3.375 0.5 C6.72032033 1.0455458 6.72032033 1.0455458 9 1 C8.95875 1.928125 8.9175 2.85625 8.875 3.8125 C8.72863661 7.15809719 8.72863661 7.15809719 11 10 C10.21625 10.0825 9.4325 10.165 8.625 10.25 C5.85250896 10.72806339 5.85250896 10.72806339 4.6875 13.0625 C4.3471875 14.0215625 4.3471875 14.0215625 4 15 C3.34 15 2.68 15 2 15 C2 13.35 2 11.7 2 10 C-0.97 9.505 -0.97 9.505 -4 9 C-4 8.34 -4 7.68 -4 7 C-2.02 6.34 -0.04 5.68 2 5 C1.34 3.35 0.68 1.7 0 0 Z " fill="#6F6F6F" transform="translate(33,171)"/>
<path d="M0 0 C0.33 1.32 0.66 2.64 1 4 C-1.64 5.65 -4.28 7.3 -7 9 C-6.67 11.31 -6.34 13.62 -6 16 C-7.75 15.875 -7.75 15.875 -10 15 C-12.3125 12.125 -12.3125 12.125 -14 9 C-12.68786941 5.06360824 -11.17198478 4.71346403 -7.5625 2.8125 C-6.07943359 2.01779297 -6.07943359 2.01779297 -4.56640625 1.20703125 C-2 0 -2 0 0 0 Z " fill="#1D1C1B" transform="translate(214,62)"/>
<path d="M0 0 C1.32 0 2.64 0 4 0 C5.1577506 3.47325181 5.06866652 6.36067448 5 10 C7.31 10 9.62 10 12 10 C12 11.32 12 12.64 12 14 C8.37 14.33 4.74 14.66 1 15 C0.67 10.05 0.34 5.1 0 0 Z " fill="#201F20" transform="translate(125,215)"/>
<path d="M0 0 C3.78611227 0.54087318 5.55400767 2.11722332 8 5 C8 5.66 8 6.32 8 7 C9.1446875 5.9790625 9.1446875 5.9790625 10.3125 4.9375 C11.199375 4.298125 12.08625 3.65875 13 3 C13.99 3.33 14.98 3.66 16 4 C16 4.99 16 5.98 16 7 C13.516241 9.27862711 10.76415103 11.05645631 8 13 C5.03 9.7 2.06 6.4 -1 3 C-0.67 2.01 -0.34 1.02 0 0 Z " fill="#1C1B1B" transform="translate(180,192)"/>
<path d="M0 0 C0.226875 0.556875 0.45375 1.11375 0.6875 1.6875 C2.97604059 5.71969057 6.17587898 8.45058599 10 11 C10.98783194 9.92456217 11.96493943 8.83926783 12.9375 7.75 C13.48277344 7.14671875 14.02804688 6.5434375 14.58984375 5.921875 C16.06212799 3.91532695 16.57529189 2.42997551 17 0 C17.99 0.33 18.98 0.66 20 1 C20 1.66 20 2.32 20 3 C19.34 3 18.68 3 18 3 C17.7525 3.515625 17.505 4.03125 17.25 4.5625 C15.60418384 7.77184151 13.8023904 10.87585664 12 14 C12.5775 14.2475 13.155 14.495 13.75 14.75 C16.3002997 16.16683317 18.01785701 17.87627537 20 20 C14.79035814 18.30225824 11.02652545 15.00681701 6.90429688 11.54492188 C3.304441 8.64373625 0.62183627 7.34158368 -4 7 C-2.92598892 4.08482708 -2.22189824 2.22189824 0 0 Z " fill="#B0AEAE" transform="translate(156,69)"/>
<path d="M0 0 C0.33 0 0.66 0 1 0 C1.33 8.91 1.66 17.82 2 27 C0.68 26.67 -0.64 26.34 -2 26 C-2.05785647 22.04172765 -2.09354717 18.0835633 -2.125 14.125 C-2.14175781 12.99707031 -2.15851562 11.86914062 -2.17578125 10.70703125 C-2.18222656 9.63066406 -2.18867188 8.55429688 -2.1953125 7.4453125 C-2.20578613 6.45031738 -2.21625977 5.45532227 -2.22705078 4.43017578 C-2 2 -2 2 0 0 Z " fill="#2E2A27" transform="translate(31,105)"/>
<path d="M0 0 C0.8971875 -0.00386719 1.794375 -0.00773437 2.71875 -0.01171875 C3.57984375 -0.01042969 4.4409375 -0.00914063 5.328125 -0.0078125 C6.49456543 -0.00612061 6.49456543 -0.00612061 7.68457031 -0.00439453 C9.75 0.125 9.75 0.125 12.75 1.125 C12.75 1.785 12.75 2.445 12.75 3.125 C2.52 3.125 -7.71 3.125 -18.25 3.125 C-17.92 2.465 -17.59 1.805 -17.25 1.125 C-11.53338113 -0.0825211 -5.82270099 -0.02553816 0 0 Z " fill="#2C2825" transform="translate(122.25,27.875)"/>
<path d="M0 0 C10.65085158 -0.55839416 10.65085158 -0.55839416 15 3 C16.8125 4.6875 16.8125 4.6875 18 6 C17.01 6.33 16.02 6.66 15 7 C14.54625 6.360625 14.0925 5.72125 13.625 5.0625 C9.74986164 2.01774843 5.8077353 2.18350135 1 2 C3.8167646 8.84656212 3.8167646 8.84656212 8.875 13.9375 C11 16 11 16 11.08984375 18.67578125 C10.83682717 21.48034534 10.4829812 24.2264446 10 27 C9.67 27 9.34 27 9 27 C8.98582031 26.25234375 8.97164062 25.5046875 8.95703125 24.734375 C8.89384484 18.6056368 8.89384484 18.6056368 5.6875 13.75 C4.800625 13.1725 3.91375 12.595 3 12 C0.54870824 8.86143018 -1.09823885 6.15430651 -0.75 2.0625 C-0.5025 1.381875 -0.255 0.70125 0 0 Z " fill="#533D32" transform="translate(74,80)"/>
<path d="M0 0 C5.36891879 0.49869404 10.69235173 1.02227532 16 2 C16 3.65 16 5.3 16 7 C13.89535207 6.69075786 11.7912947 6.3774944 9.6875 6.0625 C8.51574219 5.88847656 7.34398437 5.71445313 6.13671875 5.53515625 C3 5 3 5 0 4 C0 2.68 0 1.36 0 0 Z " fill="#272726" transform="translate(11,95)"/>
<path d="M0 0 C1.85625 0.0309375 1.85625 0.0309375 3.75 0.0625 C3.75 0.3925 3.75 0.7225 3.75 1.0625 C1.44 1.3925 -0.87 1.7225 -3.25 2.0625 C-2.59 2.7225 -1.93 3.3825 -1.25 4.0625 C-3.47907395 4.54209778 -5.70826297 5.0211608 -7.9375 5.5 C-9.17886719 5.76683594 -10.42023438 6.03367187 -11.69921875 6.30859375 C-14.54612015 6.91305136 -17.39455626 7.50014684 -20.25 8.0625 C-20.25 7.4025 -20.25 6.7425 -20.25 6.0625 C-20.91 5.7325 -21.57 5.4025 -22.25 5.0625 C-20.00023648 4.41584337 -17.75018033 3.77020477 -15.5 3.125 C-14.24703125 2.76535156 -12.9940625 2.40570312 -11.703125 2.03515625 C-10.56359375 1.71417969 -9.4240625 1.39320312 -8.25 1.0625 C-7.528125 0.85625 -6.80625 0.65 -6.0625 0.4375 C-3.99769537 0.01029904 -2.10634665 -0.03510578 0 0 Z " fill="#383432" transform="translate(108.25,27.9375)"/>
<path d="M0 0 C1.58468677 0.45363171 3.16769924 0.91311452 4.75 1.375 C5.63171875 1.63023438 6.5134375 1.88546875 7.421875 2.1484375 C9.76080572 2.9209934 11.83442562 3.83625676 14 5 C13.67 6.32 13.34 7.64 13 9 C10.69 9.33 8.38 9.66 6 10 C6.33 8.35 6.66 6.7 7 5 C4.69 5 2.38 5 0 5 C-0.33 4.01 -0.66 3.02 -1 2 C-0.67 1.34 -0.34 0.68 0 0 Z " fill="#141312" transform="translate(17,77)"/>
<path d="M0 0 C0.9075 0.350625 1.815 0.70125 2.75 1.0625 C5.87758436 1.96468779 7.05208081 2.13381507 10 1 C8.125 5.75 8.125 5.75 7 8 C9.97 8.495 9.97 8.495 13 9 C13 9.33 13 9.66 13 10 C11.00045254 10.04254356 8.99958364 10.04080783 7 10 C6.67 9.67 6.34 9.34 6 9 C5.34 10.32 4.68 11.64 4 13 C3.67 11.68 3.34 10.36 3 9 C1.68 8.67 0.36 8.34 -1 8 C-0.67 7.67 -0.34 7.34 0 7 C0.04092937 4.66702567 0.04241723 2.33294775 0 0 Z " fill="#676767" transform="translate(197,172)"/>
<path d="M0 0 C1.48819457 0.9019361 2.96532813 1.82214129 4.4375 2.75 C5.67306641 3.51570313 5.67306641 3.51570313 6.93359375 4.296875 C9.21744593 6.1792182 9.65514457 7.1157546 10 10 C3.97463002 10.602537 3.97463002 10.602537 1.19921875 8.88671875 C-0.25599455 7.65378147 -1.63479157 6.33191067 -3 5 C-1.125 1.125 -1.125 1.125 0 0 Z " fill="#ED4C04" transform="translate(78,67)"/>
<path d="M0 0 C1.32 0.33 2.64 0.66 4 1 C4 5.62 4 10.24 4 15 C2.68 15 1.36 15 0 15 C-1.3271261 11.0186217 -1.06915913 7.14954773 -1 3 C-1.66 2.67 -2.32 2.34 -3 2 C-2.01 1.34 -1.02 0.68 0 0 Z " fill="#F4F4F4" transform="translate(99,6)"/>
<path d="M0 0 C2.36661433 3.54992149 2.75511657 5.90184309 2 10 C0.54167667 13.77538061 -1.17246608 17.39062051 -3 21 C-3.33 20.34 -3.66 19.68 -4 19 C-4.66 19 -5.32 19 -6 19 C-5.72736328 18.19949219 -5.72736328 18.19949219 -5.44921875 17.3828125 C-3.5063945 11.62408217 -1.71615568 5.83006078 0 0 Z " fill="#413D3B" transform="translate(203,137)"/>
<path d="M0 0 C1.32 0.33 2.64 0.66 4 1 C3.54554036 2.41791408 3.08625056 3.83428046 2.625 5.25 C2.36976562 6.03890625 2.11453125 6.8278125 1.8515625 7.640625 C1.04826333 9.86627958 0.10288338 11.90931672 -1 14 C-2.32 14 -3.64 14 -5 14 C-4.34580901 8.93001981 -2.1453591 4.58009223 0 0 Z " fill="#1B1A1A" transform="translate(84,208)"/>
<path d="M0 0 C2.97 0 5.94 0 9 0 C9 1.32 9 2.64 9 4 C1.575 5.485 1.575 5.485 -6 7 C-6 5.35 -6 3.7 -6 2 C-4.02 2 -2.04 2 0 2 C0 1.34 0 0.68 0 0 Z " fill="#171615" transform="translate(20,143)"/>
<path d="M0 0 C5.28 1.32 10.56 2.64 16 4 C16 5.32 16 6.64 16 8 C14.91460937 7.72285156 13.82921875 7.44570313 12.7109375 7.16015625 C11.26565719 6.7941437 9.82034288 6.4282654 8.375 6.0625 C7.66214844 5.88009766 6.94929687 5.69769531 6.21484375 5.50976562 C2.16030687 4.48683201 -1.85947059 3.62042633 -6 3 C-6 2.67 -6 2.34 -6 2 C-4.02 2 -2.04 2 0 2 C0 1.34 0 0.68 0 0 Z " fill="#383432" transform="translate(135,29)"/>
<path d="M0 0 C1.32 0 2.64 0 4 0 C4.09038099 5.15171623 3.84681133 9.91913204 3 15 C1.68 15 0.36 15 -1 15 C-1.10251672 9.87416389 -1.03590199 5.05002222 0 0 Z " fill="#151413" transform="translate(128,9)"/>
<path d="M0 0 C0.66 0 1.32 0 2 0 C1.69880441 5.87331407 -0.98369149 10.79003301 -5 15 C-8.20703125 16.265625 -8.20703125 16.265625 -11 17 C-9.27674105 14.27957436 -7.54983822 11.5616154 -5.81640625 8.84765625 C-4.77473993 7.21459227 -3.73781549 5.5784328 -2.71484375 3.93359375 C-1.86203249 2.58790298 -0.93912075 1.28694325 0 0 Z " fill="#2F2A28" transform="translate(197,156)"/>
<path d="M0 0 C0 0.99 0 1.98 0 3 C-1.93232821 3.86580287 -3.87107194 4.71729941 -5.8125 5.5625 C-6.89144531 6.03816406 -7.97039063 6.51382813 -9.08203125 7.00390625 C-12 8 -12 8 -15 7 C-15 6.01 -15 5.02 -15 4 C-13.02 3.67 -11.04 3.34 -9 3 C-9 2.34 -9 1.68 -9 1 C-5.57367167 -0.61798838 -3.61944899 -1.34053666 0 0 Z " fill="#131210" transform="translate(34,157)"/>
<path d="M0 0 C1.6792238 0.63437344 3.35008418 1.29289322 5 2 C5.33 4.31 5.66 6.62 6 9 C9.77893406 10.1021891 13.53651414 11.12698697 17.375 12 C18.57125 12.33 19.7675 12.66 21 13 C21.33 13.66 21.66 14.32 22 15 C8.06451613 14.06451613 8.06451613 14.06451613 4 10 C3.95907063 7.66702567 3.95758277 5.33294775 4 3 C2.56465159 2.7773254 1.12654475 2.57238094 -0.3125 2.375 C-1.11300781 2.25898438 -1.91351563 2.14296875 -2.73828125 2.0234375 C-5.28723215 1.78466593 -5.28723215 1.78466593 -8 4 C-7.625 2.0625 -7.625 2.0625 -7 0 C-4.26965677 -1.36517162 -2.92769462 -0.74894513 0 0 Z " fill="#332C1B" transform="translate(114,148)"/>
<path d="M0 0 C1.65 0 3.3 0 5 0 C4.34 4.62 3.68 9.24 3 14 C1.68 14 0.36 14 -1 14 C-0.67 9.38 -0.34 4.76 0 0 Z " fill="#171616" transform="translate(104,214)"/>
<path d="M0 0 C4.29 0 8.58 0 13 0 C13 1.98 13 3.96 13 6 C12.01 6.495 12.01 6.495 11 7 C11 6.01 11 5.02 11 4 C7.04 3.67 3.08 3.34 -1 3 C-0.67 2.01 -0.34 1.02 0 0 Z " fill="#0B0A08" transform="translate(215,120)"/>
<path d="M0 0 C2.31 0.33 4.62 0.66 7 1 C6.40138258 3.35171131 5.73075648 5.6859378 5 8 C2.29120665 9.35439668 -0.00933268 9.06501451 -3 9 C-2.34 8.67 -1.68 8.34 -1 8 C-1 7.01 -1 6.02 -1 5 C-0.01 5 0.98 5 2 5 C2 4.34 2 3.68 2 3 C1.34 3 0.68 3 0 3 C0 2.01 0 1.02 0 0 Z " fill="#262524" transform="translate(142,18)"/>
<path d="M0 0 C2.83716045 4.25574067 5.4711716 8.62826412 8.125 13 C8.68832031 13.91523438 9.25164062 14.83046875 9.83203125 15.7734375 C10.36441406 16.65257812 10.89679688 17.53171875 11.4453125 18.4375 C11.93531738 19.24058594 12.42532227 20.04367188 12.93017578 20.87109375 C14 23 14 23 14 26 C10.31398505 22.54854349 7.94441759 18.39719656 5.3125 14.125 C4.54583008 12.92037109 4.54583008 12.92037109 3.76367188 11.69140625 C3.28091797 10.90894531 2.79816406 10.12648437 2.30078125 9.3203125 C1.85903564 8.61148926 1.41729004 7.90266602 0.9621582 7.17236328 C-0.16291497 4.63217017 -0.17726523 2.74896533 0 0 Z " fill="#464242" transform="translate(166,151)"/>
<path d="M0 0 C1.32 0 2.64 0 4 0 C4.99 4.62 5.98 9.24 7 14 C5.68 14 4.36 14 3 14 C2.49713066 12.0424015 1.9977901 10.08389623 1.5 8.125 C1.2215625 7.03445312 0.943125 5.94390625 0.65625 4.8203125 C0 2 0 2 0 0 Z " fill="#373330" transform="translate(30,132)"/>
<path d="M0 0 C2.5 0.25 2.5 0.25 4.5 2.25 C4.5 3.24 4.5 4.23 4.5 5.25 C1.79120665 6.60439668 -0.50933268 6.31501451 -3.5 6.25 C-4.125 4.375 -4.125 4.375 -4.5 2.25 C-2.5 0.25 -2.5 0.25 0 0 Z " fill="#DDDDDD" transform="translate(17.5,122.75)"/>
<path d="M0 0 C2.125 0.375 2.125 0.375 4 1 C3.25 5.75 3.25 5.75 1 8 C-1.125 7.625 -1.125 7.625 -3 7 C-2.25 2.25 -2.25 2.25 0 0 Z " fill="#E1E1E1" transform="translate(50,192)"/>
<path d="M0 0 C0.226875 0.556875 0.45375 1.11375 0.6875 1.6875 C2.36718835 4.6469509 4.54133285 6.66126784 7 9 C8 10 9 11 10 12 C7.52275598 11.557635 6.11320455 11.09056364 4.125 9.5 C1.46395426 7.62161477 -0.79984114 7.36365442 -4 7 C-2.92598892 4.08482708 -2.22189824 2.22189824 0 0 Z " fill="#B0AEAE" transform="translate(156,69)"/>
<path d="M0 0 C2.86724686 0.57344937 3.8614515 0.8614515 6 3 C5.625 5.625 5.625 5.625 5 8 C2.13275314 7.42655063 1.1385485 7.1385485 -1 5 C-0.625 2.375 -0.625 2.375 0 0 Z " fill="#E5E5E5" transform="translate(50,36)"/>
<path d="M0 0 C2.9628331 0.39504441 5.38326241 1.59817629 8 3 C5.69 3.33 3.38 3.66 1 4 C1 4.99 1 5.98 1 7 C1.66 7 2.32 7 3 7 C3 7.66 3 8.32 3 9 C1.35 8.67 -0.3 8.34 -2 8 C-2.125 5.125 -2.125 5.125 -2 2 C-1.34 1.34 -0.68 0.68 0 0 Z " fill="#D2D2D2" transform="translate(141,14)"/>
<path d="M0 0 C1.32 0 2.64 0 4 0 C3.67 2.31 3.34 4.62 3 7 C1.35 7.33 -0.3 7.66 -2 8 C-2.125 5.125 -2.125 5.125 -2 2 C-1.34 1.34 -0.68 0.68 0 0 Z " fill="#E5E5E5" transform="translate(172,27)"/>
<path d="M0 0 C1.32 0 2.64 0 4 0 C4.05399736 1.45792884 4.09279177 2.91642712 4.125 4.375 C4.14820312 5.18710938 4.17140625 5.99921875 4.1953125 6.8359375 C4 9 4 9 2 11 C0 9 0 9 -0.1953125 6.8359375 C-0.17210938 6.02382812 -0.14890625 5.21171875 -0.125 4.375 C-0.10695313 3.55773437 -0.08890625 2.74046875 -0.0703125 1.8984375 C-0.04710938 1.27195312 -0.02390625 0.64546875 0 0 Z " fill="#F14D03" transform="translate(104,77)"/>
<path d="M0 0 C1.134375 0.020625 2.26875 0.04125 3.4375 0.0625 C3.1075 1.7125 2.7775 3.3625 2.4375 5.0625 C0.4575 5.0625 -1.5225 5.0625 -3.5625 5.0625 C-4.125 3.125 -4.125 3.125 -4.5625 1.0625 C-3.5625 0.0625 -3.5625 0.0625 0 0 Z " fill="#F2F2F2" transform="translate(221.5625,105.9375)"/>
<path d="M0 0 C2.64 0.33 5.28 0.66 8 1 C7.625 2.9375 7.625 2.9375 7 5 C5 6 5 6 2 6 C0.3125 4.5 0.3125 4.5 -1 3 C-0.67 2.01 -0.34 1.02 0 0 Z " fill="#33251F" transform="translate(91,83)"/>
<path d="M0 0 C0 0.66 0 1.32 0 2 C-6.04829486 2.89604368 -11.8894576 3.11269443 -18 3 C-17.67 2.34 -17.34 1.68 -17 1 C-11.35450392 -0.20116938 -5.75098214 -0.10414253 0 0 Z " fill="#1D1816" transform="translate(122,28)"/>
<path d="M0 0 C2 3 2 3 1.625 5.6875 C1.41875 6.450625 1.2125 7.21375 1 8 C1.5775 8.226875 2.155 8.45375 2.75 8.6875 C5.59739809 10.34848222 7.12067193 12.31524561 9 15 C9 15.66 9 16.32 9 17 C7 17 7 17 5.30859375 15.35546875 C4.69113281 14.64003906 4.07367188 13.92460937 3.4375 13.1875 C2.81746094 12.47980469 2.19742188 11.77210938 1.55859375 11.04296875 C0 9 0 9 -1 6 C-0.72428861 3.99124558 -0.39764263 1.98821313 0 0 Z " fill="#553629" transform="translate(157,134)"/>
<path d="M0 0 C0.99 0.33 1.98 0.66 3 1 C3 1.66 3 2.32 3 3 C4.36125 2.87625 4.36125 2.87625 5.75 2.75 C9 3 9 3 11.3125 4.75 C12.95208905 6.93611873 13.61794563 8.32561938 14 11 C13.34 11 12.68 11 12 11 C11.62875 10.21625 11.2575 9.4325 10.875 8.625 C8.12941008 4.78117411 5.56368802 4.82296013 1 4 C0.67 2.68 0.34 1.36 0 0 Z " fill="#4F3C34" transform="translate(93,87)"/>
<path d="M0 0 C1.32 0.66 2.64 1.32 4 2 C4 3.32 4 4.64 4 6 C1 8 1 8 -2 8 C-1.125 2.25 -1.125 2.25 0 0 Z " fill="#E9E8E8" transform="translate(158,88)"/>
<path d="M0 0 C0 0.33 0 0.66 0 1 C-2.31 1.33 -4.62 1.66 -7 2 C-6.34 2.66 -5.68 3.32 -5 4 C-9.455 4.495 -9.455 4.495 -14 5 C-14 4.34 -14 3.68 -14 3 C-14.99 2.67 -15.98 2.34 -17 2 C-11.19233704 0.4943096 -6.0018137 -0.21824777 0 0 Z " fill="#423D3B" transform="translate(112,28)"/>
<path d="M0 0 C4.875 1.75 4.875 1.75 6 4 C6.99 4.66 7.98 5.32 9 6 C4.47907032 7.45606519 1.48351204 6.27032841 -3 5 C-2.01 3.35 -1.02 1.7 0 0 Z " fill="#E6E5E5" transform="translate(99,85)"/>
<path d="M0 0 C0.66 0.99 1.32 1.98 2 3 C-1.01031744 3.93423645 -1.86650268 4.04449911 -5 3 C-5.33 3.99 -5.66 4.98 -6 6 C-6.33 5.34 -6.66 4.68 -7 4 C-7.66 4.99 -8.32 5.98 -9 7 C-8.6875 4.625 -8.6875 4.625 -8 2 C-4.79191085 -0.1387261 -3.72301503 -0.47730962 0 0 Z " fill="#1F1E1E" transform="translate(87,13)"/>
<path d="M0 0 C1 4 1 4 1 7 C-1.31 7.33 -3.62 7.66 -6 8 C-6.33 7.34 -6.66 6.68 -7 6 C-4.69 4.02 -2.38 2.04 0 0 Z " fill="#11110F" transform="translate(156,21)"/>
<path d="M0 0 C2.31 0 4.62 0 7 0 C7 1.32 7 2.64 7 4 C4.69 4.33 2.38 4.66 0 5 C0 3.35 0 1.7 0 0 Z " fill="#262525" transform="translate(92,222)"/>
<path d="M0 0 C2.56687367 3.8503105 1.83288724 5.58569763 1 10 C0.67 10 0.34 10 0 10 C-0.66 8.02 -1.32 6.04 -2 4 C-4.31 3.67 -6.62 3.34 -9 3 C-9 2.34 -9 1.68 -9 1 C-4.545 0.505 -4.545 0.505 0 0 Z " fill="#D1D0D1" transform="translate(157,211)"/>
<path d="M0 0 C1.48206495 0.254496 2.96068615 0.52911762 4.4375 0.8125 C5.67306641 1.03873047 5.67306641 1.03873047 6.93359375 1.26953125 C7.95646484 1.63111328 7.95646484 1.63111328 9 2 C9.33 2.99 9.66 3.98 10 5 C3.9453125 4.609375 3.9453125 4.609375 2 4 C0.7421875 1.953125 0.7421875 1.953125 0 0 Z " fill="#2A2623" transform="translate(85,199)"/>
<path d="M0 0 C2.625 0.375 2.625 0.375 5 1 C6 4 6 4 5.0625 6.1875 C4.5365625 7.0846875 4.5365625 7.0846875 4 8 C3.34 8 2.68 8 2 8 C2 6.35 2 4.7 2 3 C0.68 2.67 -0.64 2.34 -2 2 C-1.34 1.34 -0.68 0.68 0 0 Z " fill="#949393" transform="translate(33,178)"/>
<path d="M0 0 C-0.33 0.99 -0.66 1.98 -1 3 C-4.47325181 4.1577506 -7.36067448 4.06866652 -11 4 C-9 1 -9 1 -7.1875 0.3125 C-4.76407022 -0.03370425 -2.44491162 -0.06791421 0 0 Z " fill="#292422" transform="translate(144,202)"/>
<path d="M0 0 C0.99 0.33 1.98 0.66 3 1 C2.42655063 3.86724686 2.1385485 4.8614515 0 7 C-1.32 7 -2.64 7 -4 7 C-4 4 -4 4 -2 1.8125 C-1.34 1.214375 -0.68 0.61625 0 0 Z " fill="#E4E4E4" transform="translate(192,42)"/>
<path d="M0 0 C0.33 0.99 0.66 1.98 1 3 C-1.77280706 6.08089673 -4.06326356 7.68775452 -8 9 C-7.23997083 7.68121422 -6.46656347 6.3701316 -5.6875 5.0625 C-5.25824219 4.33160156 -4.82898438 3.60070312 -4.38671875 2.84765625 C-3 1 -3 1 0 0 Z " fill="#3A3633" transform="translate(194,164)"/>
<path d="M0 0 C2.00720923 0.28674418 4.0085944 0.61866701 6 1 C6 2.32 6 3.64 6 5 C4.35 5 2.7 5 1 5 C0.34 3.68 -0.32 2.36 -1 1 C-0.67 0.67 -0.34 0.34 0 0 Z " fill="#2C2C2B" transform="translate(81,24)"/>
<path d="M0 0 C0.33 1.98 0.66 3.96 1 6 C-1.64 5.67 -4.28 5.34 -7 5 C-2.16129032 0 -2.16129032 0 0 0 Z " fill="#F8F8F8" transform="translate(102,224)"/>
<path d="M0 0 C3.64782588 0.89169077 5.54676905 1.41079976 7.875 4.4375 C9 7 9 7 9 10 C7.68 9.67 6.36 9.34 5 9 C5.66 9 6.32 9 7 9 C5.12050295 5.42895561 3.82946843 3.45255699 0 2 C0 1.34 0 0.68 0 0 Z " fill="#452D22" transform="translate(81,68)"/>
<path d="M0 0 C1.65 0 3.3 0 5 0 C5.33 0.66 5.66 1.32 6 2 C7.32 2.66 8.64 3.32 10 4 C6.7 4 3.4 4 0 4 C0 2.68 0 1.36 0 0 Z " fill="#FCFCFB" transform="translate(114,228)"/>
<path d="M0 0 C4.875 1.75 4.875 1.75 6 4 C5.2575 4.144375 4.515 4.28875 3.75 4.4375 C1.47972261 4.90187492 -0.75759479 5.41863569 -3 6 C-2.42655063 3.13275314 -2.1385485 2.1385485 0 0 Z " fill="#5E6084" transform="translate(165,83)"/>
<path d="M0 0 C2.31 0.33 4.62 0.66 7 1 C6.67 2.32 6.34 3.64 6 5 C3.83125748 4.49396008 2.00032373 4.00016187 0 3 C0 2.01 0 1.02 0 0 Z " fill="#554740" transform="translate(65,61)"/>
<path d="M0 0 C3.38361519 0.61728115 5.52002561 1.86979718 8.25 3.9375 C8.95640625 4.46214844 9.6628125 4.98679687 10.390625 5.52734375 C11.18726563 6.25630859 11.18726563 6.25630859 12 7 C12 7.66 12 8.32 12 9 C8.98472262 7.59422879 6.4052059 5.93873852 3.75 3.9375 C3.04359375 3.41027344 2.3371875 2.88304688 1.609375 2.33984375 C1.07828125 1.89769531 0.5471875 1.45554687 0 1 C0 0.67 0 0.34 0 0 Z " fill="#413D42" transform="translate(166,111)"/>
<path d="M0 0 C0.99 0.33 1.98 0.66 3 1 C2.67 3.31 2.34 5.62 2 8 C1.01 8 0.02 8 -1 8 C-0.67 5.36 -0.34 2.72 0 0 Z " fill="#2A2928" transform="translate(207,151)"/>
<path d="M0 0 C0.99 0.33 1.98 0.66 3 1 C3 3.31 3 5.62 3 8 C2.01 8.495 2.01 8.495 1 9 C-0.4783226 6.04335481 -0.06032783 3.25770263 0 0 Z " fill="#282321" transform="translate(204,96)"/>
<path d="M0 0 C0.763125 0.0825 1.52625 0.165 2.3125 0.25 C2.3125 1.57 2.3125 2.89 2.3125 4.25 C1.3225 3.92 0.3325 3.59 -0.6875 3.25 C-0.0275 3.25 0.6325 3.25 1.3125 3.25 C1.3125 2.59 1.3125 1.93 1.3125 1.25 C-1.93049151 3.63957269 -4.19652342 5.4547869 -5.6875 9.25 C-5.93285485 6.30574183 -5.86327792 4.59230436 -4.5 1.9375 C-2.6875 0.25 -2.6875 0.25 0 0 Z " fill="#414040" transform="translate(26.6875,62.75)"/>
<path d="M0 0 C0.33 0.66 0.66 1.32 1 2 C1.66 2 2.32 2 3 2 C2.67 3.65 2.34 5.3 2 7 C1.34 7 0.68 7 0 7 C-0.66 7.66 -1.32 8.32 -2 9 C-1.125 2.25 -1.125 2.25 0 0 Z " fill="#433E3C" transform="translate(34,86)"/>
<path d="M0 0 C2.0625 0.4375 2.0625 0.4375 4 1 C4.33 2.32 4.66 3.64 5 5 C3.68 5 2.36 5 1 5 C0.34 3.68 -0.32 2.36 -1 1 C-0.67 0.67 -0.34 0.34 0 0 Z " fill="#212020" transform="translate(97,213)"/>
<path d="M0 0 C0.6875 1.75 0.6875 1.75 1 4 C-0.4375 6.25 -0.4375 6.25 -2 8 C-2 7.34 -2 6.68 -2 6 C-2.66 6 -3.32 6 -4 6 C-3.6875 4.125 -3.6875 4.125 -3 2 C-2.01 1.34 -1.02 0.68 0 0 Z " fill="#383431" transform="translate(201,150)"/>
<path d="M0 0 C0.99 0.33 1.98 0.66 3 1 C3 1.66 3 2.32 3 3 C2.34 3 1.68 3 1 3 C0.7525 3.5775 0.505 4.155 0.25 4.75 C-1.16683317 7.3002997 -2.87627537 9.01785701 -5 11 C-3.92598892 8.08482708 -3.22189824 6.22189824 -1 4 C-0.3574765 1.93125966 -0.3574765 1.93125966 0 0 Z " fill="#A8A6A5" transform="translate(173,69)"/>
<path d="M0 0 C0 0.66 0 1.32 0 2 C-1.98 2.66 -3.96 3.32 -6 4 C-6 2.68 -6 1.36 -6 0 C-3.50907189 -1.24546405 -2.58919267 -0.7767578 0 0 Z " fill="#262626" transform="translate(172,214)"/>
<path d="M0 0 C4.37859255 0.50522222 6.81651224 3.17827222 10 6 C9.67 6.66 9.34 7.32 9 8 C7.49712782 6.85793642 5.99776716 5.71125043 4.5 4.5625 C3.6646875 3.92441406 2.829375 3.28632812 1.96875 2.62890625 C1.3190625 2.09136719 0.669375 1.55382812 0 1 C0 0.67 0 0.34 0 0 Z " fill="#3E3A40" transform="translate(114,70)"/>
<path d="M0 0 C0.66 1.32 1.32 2.64 2 4 C1.01 5.485 1.01 5.485 0 7 C-0.99 7 -1.98 7 -3 7 C-2.38722388 4.03824877 -1.74627478 2.61941217 0 0 Z " fill="#D9D9D8" transform="translate(41,53)"/>
<path d="M0 0 C0.99 0.33 1.98 0.66 3 1 C1.9024777 3.99324263 1.32317108 4.84610901 -1.625 6.25 C-2.40875 6.4975 -3.1925 6.745 -4 7 C-2.92598892 4.08482708 -2.22189824 2.22189824 0 0 Z " fill="#2B2A2A" transform="translate(34,48)"/>
<path d="M0 0 C1.65 0.33 3.3 0.66 5 1 C5 2.32 5 3.64 5 5 C2.36 4.34 -0.28 3.68 -3 3 C-2.01 2.67 -1.02 2.34 0 2 C0 1.34 0 0.68 0 0 Z " fill="#464240" transform="translate(146,32)"/>
<path d="M0 0 C7.42857143 -0.28571429 7.42857143 -0.28571429 11 2 C8.36 2.33 5.72 2.66 3 3 C3 2.34 3 1.68 3 1 C2.01 0.67 1.02 0.34 0 0 Z " fill="#D0CFCE" transform="translate(130,229)"/>
<path d="M0 0 C6.52307692 -0.36923077 6.52307692 -0.36923077 8.9375 1.5 C9.288125 1.995 9.63875 2.49 10 3 C7.36 3.33 4.72 3.66 2 4 C2.66 3.67 3.32 3.34 4 3 C4 2.34 4 1.68 4 1 C2.68 0.67 1.36 0.34 0 0 Z " fill="#595554" transform="translate(127,204)"/>
<path d="M0 0 C2.64 0.33 5.28 0.66 8 1 C8 1.66 8 2.32 8 3 C7.01 3 6.02 3 5 3 C4.67 3.99 4.34 4.98 4 6 C2.62437146 4.71034824 1.29233607 3.37310707 0 2 C0 1.34 0 0.68 0 0 Z " fill="#D2D1D1" transform="translate(63,201)"/>
<path d="M0 0 C0.66 0.33 1.32 0.66 2 1 C1.67 1.99 1.34 2.98 1 4 C-1.5625 5.1875 -1.5625 5.1875 -4 6 C-3.67 5.01 -3.34 4.02 -3 3 C-3.66 2.67 -4.32 2.34 -5 2 C-2.625 0.9375 -2.625 0.9375 0 0 Z " fill="#464240" transform="translate(156,196)"/>
<path d="M0 0 C-1.875 3.875 -1.875 3.875 -3 5 C-3.36760731 7.32817964 -3.70241581 9.6618385 -4 12 C-4.33 12 -4.66 12 -5 12 C-5.36666667 4.66666667 -5.36666667 4.66666667 -3.625 1.5 C-2 0 -2 0 0 0 Z " fill="#30302F" transform="translate(140,11)"/>
<path d="M0 0 C2.16874252 0.50603992 3.99967627 0.99983813 6 2 C6 2.66 6 3.32 6 4 C4.35 4 2.7 4 1 4 C0.67 2.68 0.34 1.36 0 0 Z " fill="#171616" transform="translate(146,220)"/>
<path d="M0 0 C2.375 -0.1875 2.375 -0.1875 5 0 C5.66 0.99 6.32 1.98 7 3 C5.68 3.33 4.36 3.66 3 4 C2.01 2.68 1.02 1.36 0 0 Z " fill="#2F2F2F" transform="translate(148,209)"/>
<path d="M0 0 C0 0.99 0 1.98 0 3 C-4.75 2.25 -4.75 2.25 -7 0 C-4.3333581 -1.33332095 -2.83319697 -0.67102033 0 0 Z " fill="#232222" transform="translate(82,206)"/>
<path d="M0 0 C1.32 0 2.64 0 4 0 C3.34 1.98 2.68 3.96 2 6 C1.01 5.67 0.02 5.34 -1 5 C-0.67 3.35 -0.34 1.7 0 0 Z " fill="#2E2D2C" transform="translate(218,157)"/>
<path d="M0 0 C1.32 0.33 2.64 0.66 4 1 C3.01 1 2.02 1 1 1 C0.731875 1.598125 0.46375 2.19625 0.1875 2.8125 C-0.98493467 4.97224808 -2.19369282 6.35790256 -4 8 C-4 4.09161134 -2.49432124 2.88405893 0 0 Z " fill="#37333C" transform="translate(91,147)"/>
<path d="M0 0 C5.53846154 0.49230769 5.53846154 0.49230769 7.875 3.0625 C8.431875 4.0215625 8.431875 4.0215625 9 5 C4.98525763 5 3.18024863 3.33218233 0 1 C0 0.67 0 0.34 0 0 Z " fill="#523A2F" transform="translate(131,109)"/>
<path d="M0 0 C-0.33 1.32 -0.66 2.64 -1 4 C-3.475 3.01 -3.475 3.01 -6 2 C-6 1.34 -6 0.68 -6 0 C-3.50907189 -1.24546405 -2.58919267 -0.7767578 0 0 Z " fill="#713A1F" transform="translate(99,84)"/>
<path d="M0 0 C0.33 0 0.66 0 1 0 C1 1.98 1 3.96 1 6 C-0.32 6 -1.64 6 -3 6 C-2.42655063 3.13275314 -2.1385485 2.1385485 0 0 Z " fill="#E3E2E2" transform="translate(156,69)"/>
<path d="M0 0 C2.0625 0.4375 2.0625 0.4375 4 1 C4 1.99 4 2.98 4 4 C3.01 3.67 2.02 3.34 1 3 C0.01 3.66 -0.98 4.32 -2 5 C-1.125 1.125 -1.125 1.125 0 0 Z " fill="#52372A" transform="translate(77,65)"/>
<path d="M0 0 C2.475 0.495 2.475 0.495 5 1 C4.67 1.99 4.34 2.98 4 4 C2.68 4 1.36 4 0 4 C0 2.68 0 1.36 0 0 Z " fill="#989796" transform="translate(115,11)"/>
<path d="M0 0 C-0.99 0.495 -0.99 0.495 -2 1 C-1.67 1.66 -1.34 2.32 -1 3 C-1.99 3 -2.98 3 -4 3 C-4 2.34 -4 1.68 -4 1 C-6.31 1.33 -8.62 1.66 -11 2 C-6.98764085 -0.6749061 -4.6342454 -1.48957888 0 0 Z " fill="#C1C0C0" transform="translate(99,7)"/>
<path d="M0 0 C0.99 0 1.98 0 3 0 C3.33 1.65 3.66 3.3 4 5 C2.68 5 1.36 5 0 5 C-0.5625 3.0625 -0.5625 3.0625 -1 1 C-0.67 0.67 -0.34 0.34 0 0 Z " fill="#484441" transform="translate(33,141)"/>
<path d="M0 0 C0.99 0 1.98 0 3 0 C3.66 1.32 4.32 2.64 5 4 C4.01 4.66 3.02 5.32 2 6 C0 3 0 3 0 0 Z " fill="#D0D0D0" transform="translate(198,58)"/>
</svg>
